<svg width="50" height="50" viewBox="0 0 50 50" fill="none" xmlns="http://www.w3.org/2000/svg">
<path d="M17.1345 9.94735C15.6094 10.5234 14.5167 11.9863 14.5167 13.7102C14.5167 14.3741 14.6935 14.9919 14.979 15.5452C13.7693 16.0102 12.9038 17.1765 12.9038 18.5488C12.9038 19.9215 13.7693 21.0874 14.979 21.5529C14.6935 22.1061 14.5167 22.7239 14.5167 23.3874C14.5167 25.1117 15.6094 26.5746 17.1345 27.1503C17.0136 27.4881 16.936 27.8472 16.936 28.226C16.936 30.0051 18.3827 31.4518 20.1618 31.4518C20.5634 31.4518 20.9442 31.3687 21.299 31.2348C21.8215 32.3134 22.9174 33.0647 24.1939 33.0647C25.973 33.0647 27.4197 31.618 27.4197 29.8389V7.2587C27.4197 5.48006 25.973 4.03296 24.1939 4.03296C22.9174 4.03296 21.8215 4.78466 21.299 5.8628C20.9442 5.72892 20.5634 5.64583 20.1618 5.64583C18.3827 5.64583 16.936 7.09293 16.936 8.87158C16.936 9.25078 17.0136 9.6095 17.1345 9.94735ZM20.1618 7.2587C21.0513 7.2587 21.7746 7.98206 21.7746 8.87158H23.3875C23.3875 8.09664 23.1012 7.39337 22.6441 6.83698C22.8311 6.1534 23.4513 5.64583 24.1939 5.64583C25.0835 5.64583 25.8068 6.36918 25.8068 7.2587V29.8389C25.8068 30.7284 25.0835 31.4518 24.1939 31.4518C23.4513 31.4518 22.8311 30.9446 22.6441 30.2606C23.1012 29.7043 23.3875 29.0014 23.3875 28.226H21.7746C21.7746 29.1156 21.0513 29.8389 20.1618 29.8389C19.2722 29.8389 18.5489 29.1156 18.5489 28.226C18.5489 27.3365 19.2722 26.6132 20.1618 26.6132V25.0003C19.3762 25.0003 18.6651 25.2941 18.1055 25.7619C16.9829 25.5528 16.1296 24.5699 16.1296 23.3874C16.1296 22.0537 17.2152 20.9681 18.5489 20.9681C19.883 20.9681 20.9682 22.0537 20.9682 23.3874H22.5811C22.5811 21.1642 20.7725 19.3552 18.5489 19.3552C17.6377 19.3552 16.8053 19.6707 16.1296 20.1829V20.1617C15.2401 20.1617 14.5167 19.4383 14.5167 18.5488C14.5167 17.6593 15.2401 16.9359 16.1296 16.9359V16.9151C16.8053 17.4274 17.6377 17.7424 18.5489 17.7424C20.7725 17.7424 22.5811 15.9338 22.5811 13.7102H20.9682C20.9682 15.0443 19.883 16.1295 18.5489 16.1295C17.2152 16.1295 16.1296 15.0443 16.1296 13.7102C16.1296 12.5281 16.9829 11.5453 18.1055 11.3362C18.6651 11.804 19.3762 12.0973 20.1618 12.0973V10.4844C19.2722 10.4844 18.5489 9.7611 18.5489 8.87158C18.5489 7.98206 19.2722 7.2587 20.1618 7.2587Z" fill="white"/>
<path d="M36.2905 5.64583C35.8888 5.64583 35.5085 5.72892 35.1537 5.8628C34.6308 4.78466 33.5349 4.03296 32.2583 4.03296C30.4793 4.03296 29.0326 5.48006 29.0326 7.2587V29.8389C29.0326 31.618 30.4793 33.0647 32.2583 33.0647C33.5349 33.0647 34.6308 32.3134 35.1537 31.2348C35.5085 31.3687 35.8888 31.4518 36.2905 31.4518C38.0695 31.4518 39.5162 30.0051 39.5162 28.226C39.5162 27.8472 39.4391 27.4881 39.3178 27.1503C40.8428 26.5746 41.9355 25.1117 41.9355 23.3874C41.9355 22.7239 41.7591 22.1061 41.4737 21.5529C42.6833 21.0874 43.5484 19.9215 43.5484 18.5488C43.5484 17.1765 42.6833 16.0102 41.4737 15.5452C41.7591 14.9919 41.9355 14.3741 41.9355 13.7102C41.9355 11.9863 40.8428 10.5234 39.3178 9.94735C39.4391 9.6095 39.5162 9.25078 39.5162 8.87158C39.5162 7.09293 38.0695 5.64583 36.2905 5.64583ZM40.3227 13.7102C40.3227 15.0443 39.2374 16.1295 37.9034 16.1295C36.5697 16.1295 35.4841 15.0443 35.4841 13.7102H33.8712C33.8712 15.9338 35.6801 17.7424 37.9034 17.7424C38.8145 17.7424 39.647 17.4274 40.3227 16.9151V16.9359C41.2122 16.9359 41.9355 17.6593 41.9355 18.5488C41.9355 19.4383 41.2122 20.1617 40.3227 20.1617V20.1829C39.647 19.6707 38.8145 19.3552 37.9034 19.3552C35.6801 19.3552 33.8712 21.1642 33.8712 23.3874H35.4841C35.4841 22.0537 36.5697 20.9681 37.9034 20.9681C39.2374 20.9681 40.3227 22.0537 40.3227 23.3874C40.3227 24.5699 39.4694 25.5528 38.3471 25.7619C37.7872 25.2941 37.0761 25.0003 36.2905 25.0003V26.6132C37.18 26.6132 37.9034 27.3365 37.9034 28.226C37.9034 29.1156 37.18 29.8389 36.2905 29.8389C35.401 29.8389 34.6776 29.1156 34.6776 28.226H33.0647C33.0647 29.0014 33.351 29.7043 33.8082 30.2606C33.6211 30.9446 33.001 31.4518 32.2583 31.4518C31.3688 31.4518 30.6454 30.7284 30.6454 29.8389V7.2587C30.6454 6.36918 31.3688 5.64583 32.2583 5.64583C33.001 5.64583 33.6211 6.1534 33.8082 6.83698C33.351 7.39337 33.0647 8.09664 33.0647 8.87158H34.6776C34.6776 7.98206 35.401 7.2587 36.2905 7.2587C37.18 7.2587 37.9034 7.98206 37.9034 8.87158C37.9034 9.7611 37.18 10.4844 36.2905 10.4844V12.0973C37.0761 12.0973 37.7872 11.804 38.3471 11.3362C39.4694 11.5453 40.3227 12.5281 40.3227 13.7102Z" fill="white"/>
<path d="M40.9252 5.03C37.1568 1.48806 32.2213 -0.287829 27.0417 0.0382103L27.1417 1.64754C31.8744 1.35339 36.3791 2.97178 39.821 6.20501C43.2645 9.44099 45.1613 13.8256 45.1613 18.5488C45.1613 24.2408 42.3242 29.5188 37.5718 32.6682C35.9326 33.755 34.6922 35.3052 33.9279 37.0969H22.4909C21.716 35.2922 20.4709 33.7309 18.8289 32.6343C13.9312 29.3609 11.1169 23.8942 11.3 18.0086L9.68795 17.9586C9.48713 24.4038 12.5699 30.3914 17.9331 33.9747C19.1175 34.7666 20.0633 35.8447 20.7225 37.0969H18.5489V38.7098H21.3659C21.5222 39.2323 21.6475 39.7678 21.7109 40.3226H20.1618V41.9355H21.7747V44.3548C21.7747 44.8009 22.1361 45.1612 22.5811 45.1612H23.3875C23.3875 47.8298 25.5576 49.9999 28.2261 49.9999C30.8947 49.9999 33.0648 47.8298 33.0648 45.1612H33.8712C34.3166 45.1612 34.6776 44.8009 34.6776 44.3548V41.9355H36.2905V40.3226H34.7343C34.7914 39.7686 34.9052 39.2315 35.0584 38.7098H37.9034V37.0969H35.6947C36.3445 35.8585 37.2848 34.7937 38.4633 34.0133C43.667 30.5623 46.7742 24.7818 46.7742 18.5488C46.7742 13.4507 44.6419 8.52273 40.9252 5.03ZM28.2261 48.387C26.4471 48.387 25.0004 46.9403 25.0004 45.1612H31.4519C31.4519 46.9403 30.0052 48.387 28.2261 48.387ZM33.0648 43.5484H23.3875V41.9355H33.0648V43.5484ZM33.1223 40.3226H23.3229C23.269 39.7737 23.182 39.2342 23.0497 38.7098H33.3731C33.2447 39.2335 33.1703 39.7753 33.1223 40.3226Z" fill="white"/>
<path d="M8.87165 5.64579C10.6507 5.64579 12.0974 7.09288 12.0974 8.87153C12.0974 9.31767 12.4589 9.67797 12.9038 9.67797C13.3492 9.67797 13.7103 9.31767 13.7103 8.87153C13.7103 7.09288 15.157 5.64579 16.936 5.64579C17.3814 5.64579 17.7425 5.28549 17.7425 4.83935C17.7425 4.39361 17.3814 4.03291 16.936 4.03291C15.157 4.03291 13.7103 2.58621 13.7103 0.807169C13.7103 0.361424 13.3492 0.000732422 12.9038 0.000732422C12.4589 0.000732422 12.0974 0.361424 12.0974 0.807169C12.0974 2.58621 10.6507 4.03291 8.87165 4.03291C8.42669 4.03291 8.06522 4.39361 8.06522 4.83935C8.06522 5.28549 8.42669 5.64579 8.87165 5.64579ZM12.9038 3.47888C13.2622 4.01756 13.7256 4.48142 14.2643 4.83935C13.7256 5.19768 13.2622 5.66114 12.9038 6.19982C12.5459 5.66114 12.082 5.19768 11.5434 4.83935C12.082 4.48142 12.5459 4.01756 12.9038 3.47888Z" fill="white"/>
<path d="M12.0974 13.7101C12.5428 13.7101 12.9039 13.3498 12.9039 12.9037C12.9039 12.4579 12.5428 12.0972 12.0974 12.0972C10.3184 12.0972 8.87167 10.6505 8.87167 8.8715C8.87167 8.42576 8.51059 8.06506 8.06524 8.06506C7.62028 8.06506 7.2588 8.42576 7.2588 8.8715C7.2588 10.6505 5.8121 12.0972 4.03306 12.0972C3.5881 12.0972 3.22662 12.4579 3.22662 12.9037C3.22662 13.3498 3.5881 13.7101 4.03306 13.7101C5.8121 13.7101 7.2588 15.1572 7.2588 16.9359C7.2588 17.382 7.62028 17.7423 8.06524 17.7423C8.51059 17.7423 8.87167 17.382 8.87167 16.9359C8.87167 15.1572 10.3184 13.7101 12.0974 13.7101ZM8.06524 14.2642C7.7073 13.7255 7.24345 13.262 6.70477 12.9037C7.24345 12.5458 7.70652 12.0819 8.06524 11.5432C8.42357 12.0819 8.88703 12.545 9.4257 12.9037C8.88703 13.262 8.42357 13.7255 8.06524 14.2642Z" fill="white"/>
</svg>
