<svg width="78" height="230" viewBox="0 0 78 230" fill="none" xmlns="http://www.w3.org/2000/svg">
<circle cx="5" cy="5" r="5" fill="#111A28" fill-opacity="0.1"/>
<circle cx="5" cy="125" r="5" fill="#111A28" fill-opacity="0.1"/>
<circle cx="5" cy="25" r="5" fill="#111A28" fill-opacity="0.1"/>
<circle cx="5" cy="145" r="5" fill="#111A28" fill-opacity="0.1"/>
<circle cx="5" cy="45" r="5" fill="#111A28" fill-opacity="0.1"/>
<circle cx="5" cy="165" r="5" fill="#111A28" fill-opacity="0.1"/>
<circle cx="5" cy="65" r="5" fill="#111A28" fill-opacity="0.1"/>
<circle cx="5" cy="185" r="5" fill="#111A28" fill-opacity="0.1"/>
<circle cx="5" cy="85" r="5" fill="#111A28" fill-opacity="0.1"/>
<circle cx="5" cy="205" r="5" fill="#111A28" fill-opacity="0.1"/>
<circle cx="5" cy="105" r="5" fill="#111A28" fill-opacity="0.1"/>
<circle cx="5" cy="225" r="5" fill="#111A28" fill-opacity="0.1"/>
<circle cx="35" cy="5" r="5" fill="#111A28" fill-opacity="0.1"/>
<circle cx="35" cy="125" r="5" fill="#111A28" fill-opacity="0.1"/>
<circle cx="35" cy="25" r="5" fill="#111A28" fill-opacity="0.1"/>
<circle cx="35" cy="145" r="5" fill="#111A28" fill-opacity="0.1"/>
<circle cx="35" cy="45" r="5" fill="#111A28" fill-opacity="0.1"/>
<circle cx="35" cy="165" r="5" fill="#111A28" fill-opacity="0.1"/>
<circle cx="35" cy="65" r="5" fill="#111A28" fill-opacity="0.1"/>
<circle cx="35" cy="185" r="5" fill="#111A28" fill-opacity="0.1"/>
<circle cx="35" cy="85" r="5" fill="#111A28" fill-opacity="0.1"/>
<circle cx="35" cy="205" r="5" fill="#111A28" fill-opacity="0.1"/>
<circle cx="35" cy="105" r="5" fill="#111A28" fill-opacity="0.1"/>
<circle cx="35" cy="225" r="5" fill="#111A28" fill-opacity="0.1"/>
<circle cx="65" cy="5" r="5" fill="#111A28" fill-opacity="0.1"/>
<circle cx="65" cy="125" r="5" fill="#111A28" fill-opacity="0.1"/>
<circle cx="65" cy="25" r="5" fill="#111A28" fill-opacity="0.1"/>
<circle cx="65" cy="145" r="5" fill="#111A28" fill-opacity="0.1"/>
<circle cx="65" cy="45" r="5" fill="#111A28" fill-opacity="0.1"/>
<circle cx="65" cy="165" r="5" fill="#111A28" fill-opacity="0.1"/>
<circle cx="65" cy="65" r="5" fill="#111A28" fill-opacity="0.1"/>
<circle cx="65" cy="185" r="5" fill="#111A28" fill-opacity="0.1"/>
<circle cx="65" cy="85" r="5" fill="#111A28" fill-opacity="0.1"/>
<circle cx="65" cy="205" r="5" fill="#111A28" fill-opacity="0.1"/>
<circle cx="65" cy="105" r="5" fill="#111A28" fill-opacity="0.1"/>
<circle cx="65" cy="225" r="5" fill="#111A28" fill-opacity="0.1"/>
</svg>
