<svg width="50" height="50" viewBox="0 0 50 50" fill="none" xmlns="http://www.w3.org/2000/svg">
<path d="M49.2782 17.0256L46.5098 14.2522C46.2197 13.9618 45.7492 13.9613 45.4589 14.2513C45.1684 14.5413 45.168 15.0118 45.458 15.3023L48.2261 18.0753C48.6112 18.4615 48.611 19.0898 48.2261 19.4753L46.5316 21.1688C46.1455 21.5548 45.5175 21.5549 45.1314 21.169L34.4317 10.4684C34.0454 10.0017 34.0455 9.53503 34.432 9.06835L36.1349 7.36539C36.5217 6.97926 37.1505 6.97916 37.5362 7.36549L43.17 13.0103C43.4601 13.3008 43.9306 13.3012 44.2209 13.0113C44.5114 12.7214 44.5119 12.2508 44.222 11.9603L38.588 6.31539C37.6232 5.34922 36.0516 5.34823 35.0844 6.31401L33.3812 8.01726C32.6592 8.85274 32.4762 9.74321 32.8323 10.6887C32.2627 11.2578 31.6709 11.8099 31.1219 12.3988C30.2573 13.2107 29.7975 13.4126 28.827 13.4129C27.7861 13.3743 26.6414 13.9006 25.4223 14.9792C24.5963 14.1675 23.1454 13.3582 21.9292 13.3582C21.0408 13.3582 20.2115 12.9176 19.593 12.299L18.0402 10.7461L18.5757 10.2107C18.8659 9.92047 18.8659 9.45002 18.5758 9.1598L14.4202 5.00322C14.1301 4.71301 13.6594 4.71291 13.3692 5.00322L10.8227 7.54968C10.5325 7.8399 10.5325 8.31045 10.8227 8.60057C11.113 8.89079 11.5835 8.89079 11.8736 8.60057L13.8946 6.57965L16.9993 9.68514L4.8996 21.785L1.79411 18.6802L9.5837 10.8906C9.87392 10.6004 9.87392 10.1298 9.5837 9.83971C9.29348 9.5495 8.82293 9.5495 8.53281 9.83971L0.217678 18.1549C-0.0725391 18.5052 -0.0725391 18.8555 0.217678 19.2058L4.37426 23.3614C4.72452 23.6516 5.07488 23.6515 5.42514 23.3614L5.96049 22.8261L7.51245 24.378C7.51274 24.3783 7.51294 24.3786 7.51314 24.3788C8.48396 25.3719 8.52261 25.8459 8.58473 26.7747C8.60088 28.0521 9.36284 29.3795 10.233 30.2497L11.7528 31.7695C11.7528 31.7695 9.09551 34.4283 9.08085 34.4461C7.91829 35.8485 7.93534 37.3997 9.12643 38.5956C9.81486 39.2869 10.6009 39.5904 11.4149 39.5053C11.3234 41.2143 12.8558 42.7321 14.5687 42.6091C14.3936 45.0595 17.3626 46.7239 19.3722 45.1303C19.9776 47.3248 22.7487 48.0837 24.3574 46.4749L25.4078 45.4245L26.4706 46.4873C28.3561 48.3725 31.6878 46.8249 31.5318 44.1953C33.2928 44.2995 34.7873 42.8058 34.6829 41.0443C36.4263 41.1474 37.939 39.6549 37.8324 37.8916C40.4841 38.052 42.03 34.7363 40.126 32.8321L39.0632 31.7693L40.411 30.4214C41.3009 29.5316 41.9331 28.2589 42.1449 26.9323C42.3303 25.7982 42.4978 25.1838 43.2302 24.4513L44.9125 22.7682C45.8573 23.1235 46.7473 22.9408 47.5824 22.2202L49.2774 20.5262C50.2404 19.5613 50.241 17.9912 49.2782 17.0256ZM16.9893 11.7974L18.0106 12.8188L8.03878 22.8024L7.01158 21.7752L16.9893 11.7974ZM23.3064 45.4238C22.6043 46.0144 21.9112 46.0215 21.227 45.4452C20.6045 44.7709 20.6077 44.0671 21.2351 43.2948L22.5337 41.9962C22.6637 42.4779 22.9166 42.9332 23.294 43.3106L24.3567 44.3734L23.3064 45.4238ZM29.6206 45.4118C29.0116 45.8747 28.1453 46.06 27.5215 45.4363L24.3449 42.2597C23.0381 40.9528 25.0772 38.7918 26.445 40.1595L29.6216 43.3361C30.1936 43.908 30.1936 44.8387 29.6206 45.4118ZM30.6726 42.2851L27.496 39.1086C26.1889 37.8015 28.2286 35.6407 29.596 37.0085L32.7725 40.185C34.0175 41.4521 32.0689 43.6319 30.6726 42.2851ZM35.9243 39.1082C35.3006 39.6452 34.4614 39.7719 33.8236 39.134L30.6471 35.9575C29.3231 34.6337 31.424 32.5343 32.7471 33.8574L35.9237 37.0339C36.4394 37.5658 36.4445 38.588 35.9243 39.1082ZM39.0748 35.9576C38.4501 36.4949 37.6126 36.6209 36.9748 35.983L33.7982 32.8064C33.798 32.8062 33.7978 32.806 33.7976 32.8058C33.2262 32.2337 33.2264 31.3035 33.7976 30.7323C34.4063 30.2683 35.2738 30.0818 35.8983 30.7063L39.0748 33.8829C39.6468 34.4549 39.6468 35.3856 39.0748 35.9576ZM42.1789 23.4004C41.1126 24.4666 40.8763 25.4792 40.6776 26.6949C40.516 27.7067 40.0234 28.7067 39.36 29.3702L38.012 30.7181L36.9493 29.6554C35.0927 27.7989 31.733 29.3565 31.8897 31.949C30.162 31.8445 28.6351 33.3774 28.7369 35.0984C26.975 34.9943 25.4809 36.4892 25.586 38.2511C24.1706 38.1664 22.849 39.1329 22.5132 40.5256C22.2497 40.4288 21.9426 40.4853 21.7311 40.6969L18.58 43.8484C17.8911 44.4204 17.199 44.4281 16.5038 43.8716C15.8942 43.119 15.8967 42.4717 16.5096 41.7182L19.631 38.5968C19.9212 38.3066 19.9212 37.836 19.631 37.5459C19.3408 37.2557 18.8703 37.2557 18.5801 37.5459L15.4604 40.6657C14.7154 41.274 14.0743 41.2841 13.3322 40.694C12.743 39.952 12.7528 39.3108 13.3601 38.5657L16.4862 35.4396C16.7764 35.1494 16.7764 34.6788 16.4862 34.3887C16.196 34.0985 15.7254 34.0985 15.4353 34.3887L12.3059 37.5181C11.2533 38.3769 10.6167 37.9858 10.1795 37.5468C9.94645 37.3129 9.24097 36.6043 10.2042 35.4202L15.7708 29.8535C16.061 29.5633 16.061 29.0927 15.7708 28.8026C15.4806 28.5124 15.01 28.5124 14.7199 28.8026L12.8039 30.7186L11.2842 29.1989C9.1724 26.9529 11.0055 25.9373 9.06737 23.8868L19.1017 13.8416C20.3503 14.7997 21.5419 14.8564 21.9321 14.8448C22.7085 14.8458 23.8161 15.4738 24.4002 16.058L30.7188 22.3766C31.5493 23.3793 31.5492 24.3819 30.7185 25.3844C29.9048 26.1988 28.5278 26.1983 27.7122 25.3842L21.875 19.5469C21.5848 19.2567 21.1142 19.2567 20.8241 19.5469C20.5339 19.8371 20.5339 20.3076 20.8241 20.5978L21.8743 21.648L17.5555 25.9667C17.2653 26.257 17.2653 26.7275 17.5555 27.0176C17.8457 27.3078 18.3163 27.3078 18.6064 27.0176L22.9251 22.6988L26.6617 26.4355C28.0717 27.8431 30.3632 27.8427 31.7696 26.435C33.1635 25.0414 33.1634 22.7193 31.7697 21.3255L26.4768 16.0327C27.3561 15.2712 28.1588 14.8714 28.7798 14.8987C28.7944 14.8992 28.8093 14.8993 28.8238 14.8994C30.1987 14.8994 31.0148 14.5457 32.1748 13.449C32.7118 12.9424 33.2194 12.4023 33.7421 11.8808L43.7195 21.8591L42.1789 23.4004Z" fill="white"/>
<path d="M21.6047 6.91486L24.4773 9.78245C24.8274 10.0721 25.1773 10.0721 25.5274 9.78245L28.3961 6.91873C28.7704 6.55459 29.1389 5.86606 29.1219 5.14225C29.1219 5.14225 29.1219 5.14225 29.1219 5.14215C29.0891 3.75289 27.9931 2.66455 26.6268 2.66455C26.0151 2.66455 25.4442 2.88392 25.0023 3.26322C24.5603 2.88382 23.9894 2.66455 23.3777 2.66455C22.0706 2.66455 20.999 3.71108 20.885 5.09895C20.827 5.8072 21.2091 6.49148 21.5861 6.89574C21.5923 6.90228 21.5984 6.90862 21.6047 6.91486ZM23.3779 4.15081C23.7912 4.15081 24.1584 4.39862 24.3134 4.78218C24.7728 5.40155 25.232 5.40155 25.6913 4.78218C25.8463 4.39862 26.2136 4.15091 26.6268 4.15091C27.4936 4.15091 27.9661 5.24688 27.35 5.86308L25.0024 8.20662L22.6655 5.87369C22.1382 5.29553 22.4905 4.15081 23.3779 4.15081Z" fill="white"/>
</svg>
