<svg width="649" height="644" viewBox="0 0 649 644" fill="none" xmlns="http://www.w3.org/2000/svg">
<g clip-path="url(#clip0_2_56)">
<path fill-rule="evenodd" clip-rule="evenodd" d="M554.039 209.011C585.94 285.261 525.447 364.255 479.937 434.288C435.918 502.025 388.603 584.809 307.527 588.351C229.455 591.763 186.528 507.972 136.462 449.296C95.2313 400.976 49.3341 352.729 52.3159 289.254C55.4975 221.523 93.369 157.921 151.845 121.817C209.321 86.3303 278.18 94.9529 343.929 109.207C423.948 126.555 522.807 134.362 554.039 209.011Z" fill="#111A28" fill-opacity="0.05"/>
<path fill-rule="evenodd" clip-rule="evenodd" d="M285.523 25.1115C371.52 20.9814 427.432 106.817 479.882 175.092C530.612 241.129 594.91 315.591 569.621 394.932C545.27 471.332 447.976 483.453 372.748 511.213C310.796 534.074 247.262 561.456 186.15 536.439C120.94 509.744 72.0799 451.071 57.4602 382.142C43.0904 314.392 75.9603 251.066 113.243 192.7C158.618 121.666 201.331 29.1548 285.523 25.1115Z" fill="#C4C4C4"/>
</g>
<defs>
<clipPath id="clip0_2_56">
<rect width="648.898" height="643.817" fill="white"/>
</clipPath>
</defs>
</svg>
