<svg width="50" height="50" viewBox="0 0 50 50" fill="none" xmlns="http://www.w3.org/2000/svg">
<g clip-path="url(#clip0_2_567)">
<path d="M10.4492 18.5547C10.4492 26.632 17.0204 33.2032 25.0977 33.2032C33.1749 33.2032 39.7461 26.632 39.7461 18.5547C39.7461 10.4775 33.1749 3.90625 25.0977 3.90625C17.0204 3.90625 10.4492 10.4775 10.4492 18.5547ZM25.0977 5.85938C32.098 5.85938 37.793 11.5543 37.793 18.5547C37.793 25.5551 32.098 31.25 25.0977 31.25C18.0973 31.25 12.4023 25.5551 12.4023 18.5547C12.4023 11.5543 18.0973 5.85938 25.0977 5.85938Z" fill="white"/>
<path d="M16.0538 16.8137L19.8391 20.5434L18.9682 25.7852C18.9076 26.1502 19.0583 26.518 19.3577 26.7354C19.6568 26.9529 20.0531 26.9822 20.3816 26.8121L25.0977 24.3631L29.8135 26.8121C30.1392 26.9811 30.5356 26.9548 30.8373 26.7354C31.1368 26.518 31.2875 26.1502 31.2268 25.7852L30.3559 20.5434L34.1412 16.8137C34.4048 16.5543 34.4991 16.1683 34.3846 15.8162C34.2702 15.4645 33.9669 15.2078 33.6011 15.1524L28.3478 14.3616L25.9709 9.60814C25.8057 9.27741 25.4674 9.06836 25.0977 9.06836C24.7277 9.06836 24.3897 9.27741 24.2241 9.60814L21.8472 14.3616L16.594 15.1524C16.2281 15.2074 15.9249 15.4645 15.8104 15.8162C15.696 16.1683 15.7906 16.5543 16.0538 16.8137V16.8137ZM22.6395 16.2175C22.9538 16.1702 23.2255 15.973 23.3677 15.6888L25.0977 12.2285L26.8277 15.6888C26.97 15.973 27.2416 16.1702 27.5559 16.2175L31.3794 16.7931L28.624 19.5073C28.3978 19.7305 28.2941 20.0498 28.3459 20.3633L28.9799 24.1784L25.5475 22.3962C25.4067 22.3229 25.2522 22.2863 25.0977 22.2863C24.9432 22.2863 24.7887 22.3229 24.6476 22.3962L21.2151 24.1784L21.8491 20.3633C21.9014 20.0498 21.7976 19.7305 21.571 19.5073L18.816 16.7931L22.6395 16.2175Z" fill="white"/>
<path d="M26.0743 0.976564C26.0743 1.51596 25.6371 1.95313 25.0977 1.95313C24.5583 1.95313 24.1212 1.51596 24.1212 0.976564C24.1212 0.437165 24.5583 0 25.0977 0C25.6371 0 26.0743 0.437165 26.0743 0.976564Z" fill="white"/>
<path d="M20.4952 0.575668C12.2803 2.67261 6.54297 10.0659 6.54297 18.5547C6.54297 23.827 8.75969 28.7949 12.6511 32.3132L6.76765 42.6819C6.57845 43.0157 6.6021 43.4292 6.82793 43.739C7.05376 44.0491 7.43981 44.1983 7.81555 44.1201L14.497 42.7327L16.8453 49.35C16.9727 49.7101 17.2989 49.9623 17.6796 49.9962C18.0603 50.0302 18.4254 49.8383 18.6142 49.5061L25.0977 38.1077L31.5808 49.5061C31.7555 49.8131 32.0805 49.9997 32.4292 49.9997C32.4578 49.9997 32.4868 49.9985 32.5154 49.9962C32.8961 49.9623 33.2222 49.7098 33.35 49.35L35.698 42.7327L42.3794 44.1201C42.7548 44.1979 43.1412 44.0487 43.3671 43.739C43.5933 43.4292 43.6165 43.0157 43.4273 42.6819L37.5439 32.3132C41.4353 28.7949 43.652 23.827 43.652 18.5547C43.652 10.0659 37.9147 2.67261 29.7001 0.575668C29.1771 0.442153 28.6457 0.757629 28.5122 1.28024C28.3787 1.80286 28.6942 2.33463 29.2168 2.46814C36.5662 4.34421 41.6993 10.9593 41.6993 18.5547C41.6993 27.7989 34.1916 35.1563 25.0977 35.1563C15.9973 35.1563 8.4961 27.7928 8.4961 18.5547C8.4961 10.9593 13.6288 4.34421 20.9782 2.46814C21.5008 2.33463 21.8163 1.80286 21.6831 1.28024C21.5496 0.757629 21.0182 0.442153 20.4952 0.575668V0.575668ZM17.9722 46.6851L16.053 41.277C15.8898 40.8169 15.4122 40.548 14.9342 40.6472L9.53141 41.7691L14.1876 33.5629C16.9026 35.5366 20.1172 36.739 23.46 37.0366L17.9722 46.6851ZM35.2608 40.6472C34.7832 40.548 34.3052 40.8169 34.142 41.277L32.2232 46.6851L26.735 37.0366C30.0782 36.739 33.2924 35.5366 36.0077 33.5629L40.664 41.7691L35.2608 40.6472Z" fill="white"/>
</g>
<defs>
<clipPath id="clip0_2_567">
<rect width="50" height="50" fill="white"/>
</clipPath>
</defs>
</svg>
