<svg width="60" height="60" viewBox="0 0 60 60" fill="none" xmlns="http://www.w3.org/2000/svg">
<path d="M1.46484 7.73438H6.26953C7.0773 7.73438 7.73438 7.0773 7.73438 6.26953V4.74609H12.7436C13.2289 4.74609 13.6225 4.35258 13.6225 3.86719C13.6225 3.3818 13.2289 2.98828 12.7436 2.98828H7.73438V1.46484C7.73438 0.65707 7.0773 0 6.26953 0H1.46484C0.65707 0 0 0.65707 0 1.46484V6.26953C0 7.0773 0.65707 7.73438 1.46484 7.73438ZM1.75781 1.75781H5.97656V5.97656H1.75781V1.75781Z" fill="#FA276F"/>
<path d="M58.5352 0H53.7305C52.9227 0 52.2656 0.65707 52.2656 1.46484V2.98828H33.7652C33.3661 1.27816 31.83 0 30 0C28.17 0 26.6339 1.27816 26.2348 2.98828H16.8326C16.3472 2.98828 15.9537 3.3818 15.9537 3.86719C15.9537 4.35258 16.3472 4.74609 16.8326 4.74609H20.4183C16.8714 6.09562 13.6111 8.18859 10.8998 10.8998C6.77074 15.0289 4.07531 20.4312 3.25781 26.1812C1.41398 26.4744 0 28.075 0 30C0 32.1323 1.73484 33.8672 3.86719 33.8672C5.99953 33.8672 7.73438 32.1323 7.73438 30C7.73438 28.2675 6.5891 26.7974 5.01598 26.307C6.6232 15.3967 15.3967 6.6232 26.307 5.01598C26.7974 6.5891 28.2675 7.73438 30 7.73438C31.7329 7.73438 33.2031 6.58875 33.6933 5.01516C38.7486 5.7532 43.3936 7.97789 47.1703 11.4812C47.3344 11.6646 47.9754 11.8754 48.4125 11.4346C48.7425 11.0787 48.7218 10.5226 48.3659 10.1925C45.787 7.80035 42.829 5.96613 39.6202 4.74621H52.2656V6.26965C52.2656 7.07742 52.9227 7.73449 53.7305 7.73449H58.5352C59.3429 7.73449 60 7.07742 60 6.26965V1.46496C60 0.65707 59.3429 0 58.5352 0V0ZM5.97656 30C5.97656 31.1631 5.03027 32.1094 3.86719 32.1094C2.7041 32.1094 1.75781 31.1631 1.75781 30C1.75781 28.8369 2.7041 27.8906 3.86719 27.8906C5.03027 27.8906 5.97656 28.8369 5.97656 30ZM30 5.97656C28.8369 5.97656 27.8906 5.03027 27.8906 3.86719C27.8906 2.7041 28.8369 1.75781 30 1.75781C31.1631 1.75781 32.1094 2.7041 32.1094 3.86719C32.1094 5.03027 31.1631 5.97656 30 5.97656ZM58.2422 5.97656H54.0234V1.75781H58.2422V5.97656Z" fill="#FA276F"/>
<path d="M56.7428 26.1814C56.0777 21.488 54.184 17.0515 51.2397 13.3096C50.9393 12.9281 50.3869 12.8621 50.0054 13.1624C49.6239 13.4626 49.5581 14.0152 49.8581 14.3966C52.5853 17.8624 54.3485 21.9649 54.9854 26.3068C53.4115 26.7968 52.2656 28.2671 52.2656 30.0001C52.2656 32.1324 54.0005 33.8673 56.1328 33.8673C58.2652 33.8673 60 32.1324 60 30.0001C60 28.0753 58.5863 26.4749 56.7428 26.1814ZM56.1328 32.1095C54.9697 32.1095 54.0235 31.1632 54.0235 30.0001C54.0235 28.837 54.9697 27.8907 56.1328 27.8907C57.2959 27.8907 58.2422 28.837 58.2422 30.0001C58.2422 31.1632 57.2959 32.1095 56.1328 32.1095Z" fill="#FA276F"/>
<path d="M41.8326 33.2161C42.4226 32.5726 42.5385 31.6234 42.1209 30.8539L32.4637 13.0667C32.5752 12.7751 32.6368 12.459 32.6368 12.1287C32.6368 10.6747 31.4539 9.49194 30.0001 9.49194C28.5462 9.49194 27.3634 10.6747 27.3634 12.1287C27.3634 12.459 27.425 12.775 27.5364 13.0666L17.8793 30.8537C17.4615 31.6233 17.5777 32.5726 18.1682 33.2163C18.8672 33.9781 20.2063 35.5761 21.3214 37.7216C21.5289 38.0344 21.9587 38.3579 22.5067 38.0961C22.9373 37.8723 23.105 37.3417 22.8812 36.9109C21.6727 34.5858 20.2211 32.8534 19.4633 32.0278C19.3802 31.9372 19.3644 31.8025 19.4242 31.6924L28.778 14.464C28.8881 14.5219 29.0026 14.5721 29.1212 14.6142V27.8584C27.133 28.2662 25.633 30.0295 25.633 32.1366C25.633 34.5447 27.592 36.5037 30.0001 36.5037C32.4082 36.5037 34.3672 34.5447 34.3672 32.1366C34.3672 30.0295 32.8673 28.2662 30.879 27.8584V14.6143C30.9976 14.5723 31.1122 14.5219 31.2223 14.4641L40.5762 31.6927C40.6359 31.8027 40.6202 31.9375 40.5371 32.0282C38.8915 33.8227 35.0641 38.6598 35.0641 44.8055V46.792H33.2639C32.7784 46.792 32.385 47.1856 32.385 47.6709C32.385 48.1563 32.7784 48.5499 33.2639 48.5499H39.4922C39.8475 48.5499 40.1367 48.839 40.1367 49.1944V50.2491C40.1367 50.6045 39.8475 50.8936 39.4922 50.8936H20.5078C20.1524 50.8936 19.8633 50.6045 19.8633 50.2491V49.1944C19.8633 48.839 20.1524 48.5499 20.5078 48.5499H29.2021C29.6875 48.5499 30.081 48.1563 30.081 47.6709C30.081 47.1856 29.6875 46.792 29.2021 46.792H24.94V44.8054C24.94 43.5205 24.7689 42.207 24.4312 40.9013C24.3097 40.4312 23.8302 40.1489 23.3603 40.2703C22.8903 40.3918 22.6079 40.8713 22.7293 41.3413C23.0298 42.5033 23.1821 43.6689 23.1821 44.8055V46.792H20.5078C19.1831 46.792 18.1055 47.8697 18.1055 49.1944V50.2491C18.1055 51.3073 18.7941 52.2061 19.7461 52.5256V57.9491C19.7461 59.0799 20.6661 59.9999 21.7969 59.9999H38.2031C39.3339 59.9999 40.2539 59.0799 40.2539 57.9491V52.5254C41.2059 52.206 41.8945 51.3072 41.8945 50.249V49.1943C41.8945 47.8696 40.8169 46.7919 39.4922 46.7919H36.8218V44.8054C36.8218 39.277 40.326 34.8589 41.8326 33.2161ZM30 11.2499C30.4847 11.2499 30.8789 11.6441 30.8789 12.1288C30.8789 12.6135 30.4847 13.0077 30 13.0077C29.5153 13.0077 29.1211 12.6135 29.1211 12.1288C29.1211 11.6441 29.5153 11.2499 30 11.2499ZM32.6093 32.1367C32.6093 33.5754 31.4388 34.746 30 34.746C28.5612 34.746 27.3907 33.5754 27.3907 32.1367C27.3907 30.698 28.5613 29.5274 30 29.5274C31.4387 29.5274 32.6093 30.698 32.6093 32.1367ZM38.2031 58.2421H21.7969C21.6354 58.2421 21.5039 58.1106 21.5039 57.9491V56.3256H28.7309C29.2162 56.3256 29.6098 55.9321 29.6098 55.4467C29.6098 54.9613 29.2162 54.5678 28.7309 54.5678H21.5039V52.6513H38.4961V54.5678H36.0614C35.5759 54.5678 35.1825 54.9613 35.1825 55.4467C35.1825 55.9321 35.5759 56.3256 36.0614 56.3256H38.4961V57.9491C38.4961 58.1106 38.3647 58.2421 38.2031 58.2421Z" fill="#FA276F"/>
</svg>
