<svg width="60" height="60" viewBox="0 0 60 60" fill="none" xmlns="http://www.w3.org/2000/svg">
<g clip-path="url(#clip0_5_875)">
<path d="M31.4838 28.5177C31.0256 28.0595 30.2838 28.0595 29.8256 28.5177C29.3686 28.9748 29.3686 29.7166 29.8256 30.1748C30.2838 30.6318 31.0256 30.6318 31.4838 30.1748C31.9408 29.7166 31.9408 28.9748 31.4838 28.5177Z" fill="#FA276F"/>
<path d="M46.3983 13.6021C44.1085 11.3124 40.4016 11.3123 38.1116 13.6021C35.8278 15.886 35.8277 19.6031 38.112 21.8889C40.3967 24.1722 44.1139 24.1731 46.3983 21.8886C48.6879 19.599 48.6884 15.8921 46.3983 13.6021ZM44.741 20.2313C43.3708 21.6017 41.1402 21.6017 39.7693 20.2315C38.3987 18.8602 38.3986 16.6296 39.769 15.2594C41.1428 13.8856 43.367 13.8853 44.741 15.2594C46.1148 16.633 46.1151 18.8574 44.741 20.2313Z" fill="#FA276F"/>
<path d="M59.6565 0.343253C59.4264 0.113214 59.1123 -0.0114729 58.7858 0.000831796C58.5209 0.010324 52.2121 0.263917 44.7127 2.91458C38.7033 5.03637 33.6944 8.07421 29.825 11.9437C28.9579 12.8108 28.1142 13.7303 27.3068 14.6855C23.4809 12.4333 20.4151 13.1395 18.4769 14.1767C14.0143 16.565 11.2521 23.0497 11.2521 27.688C11.2524 28.1619 11.538 28.5893 11.9758 28.7705C12.1208 28.8307 12.2731 28.8598 12.4241 28.8598C12.7291 28.8598 13.0288 28.7407 13.2529 28.5166C15.6064 26.1631 18.5092 26.3103 19.4575 26.435L19.8679 26.8454C19.0603 28.7673 18.4096 30.6784 17.9325 32.5371C17.7602 33.2097 17.8183 33.9215 18.0744 34.5726C16.9461 35.0926 15.8575 35.856 14.9097 36.8038C11.8932 39.8205 11.2807 47.1721 11.2561 47.4836C11.2291 47.8254 11.3531 48.162 11.5956 48.4044C11.8162 48.625 12.1147 48.7477 12.4241 48.7477C12.4548 48.7477 12.4856 48.7465 12.5164 48.7441C12.8279 48.7196 20.1798 48.107 23.1963 45.0905C24.1437 44.1431 24.9071 43.0546 25.427 41.9266C26.1163 42.1976 26.8258 42.231 27.4638 42.0675C29.3216 41.5905 31.2325 40.9401 33.1546 40.1323L33.565 40.5427C33.6896 41.4911 33.8368 44.394 31.4834 46.7472C31.1484 47.0823 31.0481 47.5864 31.2295 48.0242C31.4107 48.4621 31.838 48.7476 32.312 48.7476C36.9503 48.7476 43.4349 45.9854 45.8231 41.5227C46.8604 39.5848 47.5665 36.519 45.3144 32.6929C46.2692 31.886 47.1887 31.0422 48.0561 30.1748C51.9257 26.3053 54.9634 21.2963 57.0852 15.2874C59.736 7.78769 59.9894 1.4788 59.9989 1.21395C60.0107 0.88876 59.8866 0.573409 59.6565 0.343253ZM13.8721 25.1674C14.6001 21.6444 16.7145 17.7785 19.5833 16.2431C21.5003 15.2172 23.5958 15.3178 25.8237 16.5374C23.9256 19.0337 22.2755 21.7231 20.9001 24.5632C20.8826 24.5524 20.6717 24.2872 20.2798 24.1988C20.1187 24.1624 17.018 23.4955 13.8721 25.1674ZM21.539 43.4331C19.9277 45.0445 16.1478 45.8943 13.7587 46.2413C14.1058 43.8521 14.9558 40.0723 16.567 38.4611C17.4693 37.5588 18.5156 36.8746 19.5672 36.4893L23.5108 40.4329C23.1255 41.4845 22.4415 42.5308 21.539 43.4331ZM26.8816 39.7972C26.5424 39.884 26.1496 39.7565 25.8576 39.4649C24.3415 37.9489 23.7485 37.3558 23.5624 37.1698C23.2211 36.8286 22.3843 35.9917 20.5359 34.1432C20.2436 33.8504 20.1161 33.4577 20.2027 33.1191C20.5781 31.6573 21.069 30.1576 21.6659 28.6434L31.3567 38.3342C29.8423 38.9313 28.3428 39.422 26.8816 39.7972ZM43.757 40.4168C42.2216 43.2855 38.3559 45.4 34.833 46.1279C35.9562 44.0141 36.2038 41.3234 35.7934 39.6918C35.6982 39.3128 35.4509 39.1223 35.4371 39.0999C38.2769 37.7245 40.9662 36.0744 43.4628 34.1763C44.6823 36.4045 44.7828 38.5001 43.757 40.4168ZM46.3991 28.5175C45.3431 29.5734 44.2061 30.5935 43.0194 31.5494C40.1669 33.8463 37.0272 35.7918 33.6775 37.3406L22.6596 26.3229C24.2083 22.9729 26.1538 19.8333 28.4505 16.981C29.4072 15.7936 30.4272 14.6564 31.4827 13.601C34.9544 10.1292 39.4349 7.36617 44.8035 5.37727L54.6228 15.1966C52.6342 20.5651 49.8711 25.0456 46.3991 28.5175ZM55.466 12.725L47.2751 4.5341C51.7377 3.14801 55.62 2.62899 57.5578 2.44243C57.3711 4.38059 56.852 8.26289 55.466 12.725Z" fill="#FA276F"/>
<path d="M28.1684 48.4039C27.7106 47.9463 26.9685 47.9465 26.511 48.4041L23.197 51.7194C22.7395 52.1771 22.7396 52.9191 23.1972 53.3766C23.6551 53.8341 24.3971 53.8341 24.8546 53.3764L28.1687 50.0612C28.6262 49.6034 28.626 48.8614 28.1684 48.4039Z" fill="#FA276F"/>
<path d="M11.5962 31.8319C11.1387 31.3741 10.3967 31.3741 9.93889 31.8316L6.62366 35.1457C6.16593 35.6032 6.16581 36.3452 6.62331 36.8029C7.08069 37.2604 7.82261 37.2609 8.28057 36.8032L11.5958 33.4891C12.0535 33.0316 12.0537 32.2896 11.5962 31.8319Z" fill="#FA276F"/>
<path d="M19.8823 50.0622C19.4249 49.6046 18.6828 49.6046 18.2251 50.0621L10.2868 57.9992C9.82906 58.4568 9.82906 59.1988 10.2867 59.6565C10.7441 60.1141 11.4862 60.1143 11.9439 59.6566L19.8822 51.7195C20.3399 51.2619 20.3399 50.5198 19.8823 50.0622Z" fill="#FA276F"/>
<path d="M10.5074 50.0622C10.0499 49.6046 9.30771 49.6046 8.85009 50.0621L0.911827 57.9992C0.454093 58.4568 0.454093 59.1988 0.91171 59.6565C1.36909 60.1141 2.11124 60.1143 2.56897 59.6566L10.5072 51.7195C10.965 51.2619 10.965 50.5198 10.5074 50.0622Z" fill="#FA276F"/>
<path d="M9.93771 40.1175C9.48021 39.66 8.73806 39.66 8.28045 40.1176L0.34335 48.0559C-0.114266 48.5136 -0.114266 49.2555 0.343467 49.7133C0.801084 50.1709 1.54311 50.1709 2.00073 49.7131L9.93783 41.7749C10.3954 41.3172 10.3954 40.5753 9.93771 40.1175Z" fill="#FA276F"/>
<path d="M36.455 23.5451C35.9972 23.0875 35.2554 23.0875 34.7976 23.5451L33.1406 25.2021C32.683 25.6598 32.683 26.4018 33.1406 26.8595C33.5983 27.3171 34.3402 27.3171 34.7979 26.8595L36.455 25.2025C36.9126 24.7449 36.9126 24.0029 36.455 23.5451Z" fill="#FA276F"/>
</g>
<defs>
<clipPath id="clip0_5_875">
<rect width="60" height="60" fill="white"/>
</clipPath>
</defs>
</svg>
