<svg width="50" height="50" viewBox="0 0 50 50" fill="none" xmlns="http://www.w3.org/2000/svg">
<g clip-path="url(#clip0_3_614)">
<path d="M6.69033 18.1459C7.0502 18.3535 7.46543 18.395 7.8419 18.2926C8.21836 18.1929 8.55606 17.9493 8.76367 17.5923C9.88203 15.6545 11.0446 13.4151 12.2434 11.5631C12.4344 11.2115 12.4703 10.8102 12.3734 10.4448C12.2489 9.98528 12.0136 9.75266 11.6315 9.50081C9.97344 8.54299 8.31523 7.58518 6.6543 6.62747L1.67705 15.2505C3.34912 16.2164 5.01826 17.1798 6.69033 18.1459ZM23.1114 18.2289C23.3329 18.3563 23.5903 18.3867 23.8394 18.3203C24.1551 18.2372 24.2769 18.085 24.4484 17.8331C24.5592 17.6144 24.5758 17.3708 24.5176 17.1466C24.4567 16.9197 24.3128 16.7148 24.1051 16.5819L18.8898 13.57C17.9984 13.0552 17.3009 13.1604 16.5617 13.271C15.5984 13.4177 14.5796 13.57 13.1125 12.8918L10.3388 17.6975C12.2766 18.9183 13.0046 19.9535 13.727 20.9806C14.4191 21.9633 15.1057 22.9377 17.121 24.1032C19.1362 25.2657 21.301 26.3897 23.2775 26.7163C25.1349 27.0237 27.1696 26.4257 28.1634 24.7066C28.3709 24.3467 28.3959 23.9176 28.2852 23.5162C28.1245 22.9376 27.8062 22.6194 27.3273 22.301C24.6282 20.7425 21.9265 19.1839 19.2275 17.6255C18.8871 17.4289 18.7708 16.9944 18.9674 16.6567C19.164 16.3161 19.5985 16.1999 19.939 16.3964L23.1114 18.2289ZM5.21211 18.9265C5.11797 19.4054 5.04326 19.8926 4.98233 20.3854C4.88545 21.1798 4.83828 21.9909 4.83828 22.8187C4.83828 24.3882 5.01543 25.9135 5.35039 27.3724C5.69922 28.8811 6.21406 30.3205 6.87568 31.6742C7.05 32.0258 6.90332 32.4493 6.55186 32.621C6.2002 32.7926 5.77666 32.6487 5.60508 32.2971C4.89102 30.841 4.33731 29.299 3.96641 27.688C3.60645 26.1212 3.4127 24.488 3.4127 22.8188C3.4127 21.9412 3.46807 21.0748 3.57051 20.2195C3.65352 19.5357 3.76983 18.8546 3.9165 18.1792L0.356643 16.125C0.0162129 15.9284 -0.100193 15.4966 0.0936543 15.1562L5.78232 5.30686C5.97607 4.96633 6.41074 4.85012 6.74844 5.04387L10.2475 7.06467C12.1493 5.28469 14.3721 3.8425 16.8221 2.83762C19.3494 1.80237 22.1094 1.23206 24.9993 1.23206C27.8894 1.23206 30.652 1.80237 33.1766 2.83762C35.6266 3.8425 37.8521 5.28469 39.7512 7.06467L43.2114 5.06877C43.5519 4.84182 44.0143 4.94973 44.219 5.30413L46.2314 8.78928C46.428 9.12981 46.3117 9.56448 45.974 9.76096C45.6336 9.95755 45.1988 9.84133 45.0024 9.50071L43.3441 6.62737C41.6722 7.59348 40.0002 8.55676 38.331 9.52288C37.9712 9.73049 37.7274 10.0682 37.6278 10.4447C37.5254 10.8211 37.567 11.2336 37.7745 11.5935C38.9317 13.5894 40.0805 15.5907 41.2349 17.5894C41.4425 17.9492 41.7829 18.1928 42.1566 18.2925C42.5331 18.3921 42.9484 18.3534 43.3055 18.1458C44.9774 17.177 46.6522 16.2163 48.3243 15.2503L46.6634 12.3769C46.4696 12.0364 46.5858 11.6045 46.9235 11.408C47.264 11.2143 47.6987 11.3305 47.8925 11.6682L49.9049 15.1562C50.1015 15.4966 49.9823 15.9284 49.6446 16.125L46.082 18.179C46.2314 18.8545 46.3477 19.5355 46.4308 20.2193C46.5332 21.0746 46.5858 21.941 46.5858 22.8186C46.5858 27.7017 44.9637 32.2057 42.2286 35.8237C39.5379 39.3835 35.7649 42.0854 31.3993 43.4391V48.0565C31.3993 48.4495 31.081 48.7679 30.6879 48.7679H19.3134C18.9203 48.7679 18.6019 48.4495 18.6019 48.0565V43.4391C16.4067 42.7581 14.3638 41.7366 12.5284 40.4356C10.5215 39.0155 8.76924 37.2576 7.35186 35.248C7.1249 34.9269 7.20244 34.484 7.52354 34.2597C7.84463 34.0327 8.2876 34.1102 8.51455 34.4313C9.8377 36.3109 11.4765 37.9525 13.3506 39.2812C14.945 40.4107 16.7112 41.3131 18.6019 41.947V41.5567C18.6019 40.7484 18.9312 40.0119 19.4627 39.4805C19.8254 39.1179 20.285 38.8493 20.7942 38.7137C20.6669 37.5317 20.177 36.9144 19.7092 36.3303C19.0836 35.5442 18.4939 34.805 18.4939 33.277V27.2976C18.4939 27.0457 18.5632 26.7827 18.6518 26.5502C17.8904 26.1682 17.1403 25.753 16.4095 25.3322C14.1229 24.0117 13.3477 22.91 12.5671 21.7999C11.9221 20.8865 11.2771 19.9673 9.55254 18.8794C9.17881 19.2642 8.71094 19.5326 8.20996 19.6656C7.48467 19.8593 6.68467 19.779 5.98428 19.3748L5.21211 18.9265ZM11.5347 7.8093C11.817 7.96985 12.0993 8.13313 12.3817 8.29368C13.0794 8.69788 13.5499 9.3512 13.7465 10.0765C13.8794 10.572 13.8821 11.1034 13.7409 11.6128C14.8261 12.0945 15.6096 11.9754 16.3515 11.8648C17.3425 11.7153 18.2754 11.5769 19.6014 12.3409L24.7834 15.3334C24.9245 15.4165 25.0575 15.5106 25.1765 15.6157C25.4228 15.458 25.6775 15.2947 25.9294 15.1397C26.3612 14.8711 26.8235 14.5915 27.2499 14.348C29.5364 13.0276 30.8763 12.9057 32.2299 12.7839C33.3399 12.6843 34.4582 12.5846 36.2633 11.6351C36.1166 11.1174 36.1192 10.5804 36.255 10.0766C36.4487 9.35129 36.9193 8.70071 37.6197 8.29651L38.4641 7.8093C36.7589 6.27844 34.7906 5.03274 32.6369 4.14973C30.2867 3.18635 27.7067 2.65491 24.9994 2.65491C22.2921 2.65491 19.7121 3.18635 17.3619 4.14973C15.2081 5.03284 13.2426 6.27854 11.5347 7.8093ZM25.9045 16.8365C26.1314 17.7721 25.7688 18.7548 24.9937 19.3196L28.0359 21.0746C28.5813 21.3459 29.0962 21.9217 29.3758 22.4477L32.5095 20.6401C32.8499 20.4435 33.2845 20.5598 33.4811 20.8975C33.6776 21.2379 33.5613 21.6726 33.2209 21.8692L30.0513 23.699C29.9599 23.7516 29.8603 23.782 29.7634 23.7903C29.7855 24.1667 29.7412 24.5432 29.6194 24.9059C29.7744 25.191 29.9793 25.3433 30.281 25.4596C30.5246 25.5233 30.7931 25.4928 31.0117 25.3682L36.1911 22.3757C37.016 21.8968 37.2818 21.3571 37.6168 20.51C37.9712 19.602 38.3504 18.6442 39.6708 17.7113L36.8942 12.9056C34.8678 13.9714 33.6055 14.0849 32.3543 14.1956C31.1584 14.3035 29.9736 14.4115 27.9556 15.577C27.6096 15.7736 27.1584 16.0476 26.6822 16.3438C26.4084 16.5126 26.1453 16.6815 25.9045 16.8365ZM28.8167 26.1875C27.2665 27.9924 25.3343 28.4437 23.2637 28.1502V30.9601C23.2637 31.3532 22.9426 31.6715 22.5495 31.6715C22.1565 31.6715 21.8382 31.3532 21.8382 30.9601V27.8403C21.2097 27.6604 20.5786 27.4278 19.9446 27.1565C19.928 27.2118 19.9197 27.2616 19.9197 27.2976V33.277C19.9197 34.3123 20.3571 34.8632 20.8221 35.4473C21.4284 36.2085 22.0706 37.0141 22.2173 38.6197H27.7648C27.8423 36.6819 28.2021 35.5857 28.9939 33.8749C29.1572 33.5206 29.5808 33.3656 29.9379 33.5288C30.2922 33.6921 30.4473 34.1157 30.2839 34.47C29.5752 36.0036 29.2541 36.9753 29.1849 38.7081C29.7054 38.841 30.1677 39.1123 30.5358 39.4805C31.0673 40.0119 31.3995 40.7484 31.3995 41.5567V41.947C35.2972 40.6431 38.6661 38.1794 41.0967 34.9656C43.649 31.5883 45.1632 27.3806 45.1632 22.8186C45.1632 21.9908 45.1133 21.1798 45.0164 20.3853C44.9583 19.8925 44.8808 19.4053 44.7894 18.9264C44.532 19.0759 44.2747 19.2254 44.0172 19.3748C43.3168 19.779 42.5169 19.8592 41.7915 19.6656C41.2933 19.5326 40.831 19.2697 40.46 18.8932C39.5021 19.5936 39.2143 20.3299 38.9403 21.0247C38.5776 21.9493 38.2344 22.8186 36.9443 23.5798L31.7207 26.5945C31.5713 26.6803 31.4189 26.7467 31.264 26.7993C31.3192 27.7101 31.3442 28.6319 31.3442 29.5454C31.3442 30.0521 31.3192 30.5669 31.2666 31.068C31.2279 31.4583 30.8791 31.7434 30.4888 31.7019C30.0984 31.6631 29.816 31.3143 29.8549 30.924C29.9048 30.4644 29.9214 30.0076 29.9214 29.5453C29.9214 28.6346 29.9019 27.7211 29.8411 26.8104C29.4589 26.6969 29.1046 26.4837 28.8167 26.1875ZM20.0248 41.5568V47.345H29.9766V41.5568C29.9766 41.1415 29.8049 40.7622 29.5309 40.4883C29.2567 40.2115 28.8775 40.0426 28.4623 40.0426H21.539C21.1237 40.0426 20.7445 40.2115 20.4705 40.4883C20.1937 40.7622 20.0248 41.1415 20.0248 41.5568Z" fill="white"/>
</g>
<defs>
<clipPath id="clip0_3_614">
<rect width="50" height="50" fill="white"/>
</clipPath>
</defs>
</svg>
