<svg width="60" height="60" viewBox="0 0 60 60" fill="none" xmlns="http://www.w3.org/2000/svg">
<g clip-path="url(#clip0_5_808)">
<path d="M59.9191 47.5115C59.6927 44.6705 59.8008 41.7348 59.7993 38.8831C59.7978 36.0119 59.581 33.1678 59.5141 30.3024C59.4366 26.9867 59.4809 23.6528 59.5178 20.3365C59.5482 17.6097 59.0549 14.8861 58.9006 12.1673C58.773 9.9177 58.3987 8.27662 55.9611 7.78326C52.9263 7.16908 49.9917 8.09533 47.0042 7.78068C46.2709 7.70345 45.2128 7.80318 44.5385 7.55439C43.4695 7.15994 44.032 6.01186 44.0903 4.92624C44.1231 4.31452 44.1061 3.28621 43.7815 2.72922C43.3585 2.00371 42.5008 1.95965 41.7606 1.99645C40.798 2.04426 39.9014 2.03723 38.9393 1.96762C36.3991 1.78387 33.8284 2.02774 31.2968 1.80942C29.033 1.61418 26.7216 1.59356 24.4489 1.5836C19.3674 1.56121 14.3102 0.858912 9.22861 1.23215C8.22162 1.3061 5.06319 0.98606 4.50526 2.19285C4.21652 2.81746 4.4728 3.61996 4.48065 4.2571C4.49507 5.41479 4.36581 6.50088 4.57382 7.63502C4.25929 7.65717 3.93995 7.68494 3.61077 7.71939C2.52363 7.83295 0.871643 7.6199 0.322856 8.82224C-0.042885 9.62368 -0.195346 11.3256 0.397973 12.0435C1.29117 13.1244 3.17273 12.7594 4.39675 12.6653C4.40601 12.7754 4.41526 12.8875 4.4196 13.0075C4.43366 13.3977 4.37366 13.7708 4.42757 14.1621C4.45171 14.3371 4.48944 14.5432 4.55343 14.7371C4.24546 14.7592 3.93292 14.7862 3.61077 14.8199C2.52363 14.9334 0.871643 14.7204 0.322856 15.9227C-0.042885 16.7242 -0.195346 18.4261 0.397973 19.144C1.3193 20.259 3.29472 19.8345 4.51265 19.7568C4.56597 19.7534 4.62163 19.7511 4.67647 19.7483C4.67565 19.9019 4.68772 20.0608 4.69276 20.2173C4.70976 20.7456 4.80737 21.2657 4.77749 21.7933C4.7769 21.8036 4.77901 21.8123 4.77878 21.8224C4.39851 21.8459 4.01167 21.8785 3.61077 21.9204C2.52363 22.0339 0.871643 21.8209 0.322856 23.0232C-0.042885 23.8246 -0.195346 25.5264 0.397973 26.2444C1.3193 27.3595 3.29472 26.935 4.513 26.8573C4.47304 27.5076 4.56198 28.1517 4.58308 28.8156C4.58437 28.8557 4.58987 28.8956 4.59796 28.9347C4.27569 28.9571 3.94827 28.9856 3.61066 29.0208C2.52351 29.1344 0.871526 28.9213 0.322739 30.1237C-0.0430023 30.9251 -0.195463 32.627 0.397856 33.3449C1.28484 34.4184 3.14671 34.0657 4.3712 33.9686C4.31366 34.4841 4.28296 35.0227 4.30347 35.5335C4.31073 35.7136 4.3262 35.8889 4.36464 36.0529C4.11726 36.0723 3.86741 36.0944 3.61054 36.1212C2.5234 36.2347 0.871409 36.0217 0.322622 37.224C-0.0431194 38.0255 -0.19558 39.7274 0.397738 40.4453C1.26633 41.4966 3.07125 41.1796 4.29573 41.0748C4.27359 41.5093 4.33347 41.9685 4.31226 42.3873C4.29866 42.656 4.30452 42.9075 4.32151 43.1566C4.08808 43.1755 3.85241 43.1964 3.61054 43.2217C2.5234 43.3352 0.871409 43.1222 0.322622 44.3245C-0.0431194 45.126 -0.19558 46.8279 0.397738 47.5458C1.26973 48.6011 3.08496 48.2777 4.30968 48.1742C4.05691 49.7834 3.88312 52.0309 5.7921 52.4289C6.93338 52.6669 8.30939 52.6072 9.47869 52.6784C11.0417 52.7736 12.6328 52.9033 14.2005 52.887C17.2967 52.8549 20.4369 53.0435 23.5213 52.8249C26.5221 52.6122 29.6633 52.8649 32.6372 52.4114C32.622 52.9918 32.5986 53.5726 32.5603 54.161C32.5002 55.0821 32.4455 56.2331 33.1839 56.9061C33.7938 57.462 34.6235 57.5034 35.4001 57.6138C36.7526 57.8061 38.0999 58.0341 39.454 58.2228C42.1076 58.5925 44.8015 58.5871 47.474 58.7281C50.0783 58.8654 52.7295 58.9908 55.3256 58.7028C57.4525 58.4669 58.7131 57.8293 59.2679 55.642C59.929 53.0353 60.1315 50.1779 59.9191 47.5115ZM4.51253 11.3054C3.59847 11.3645 1.6759 11.8706 1.39254 10.7611C1.08832 9.56966 1.99769 9.17157 2.95441 9.10161C4.58425 8.98255 6.26963 8.82423 7.89056 8.59431C8.85162 8.73025 8.75306 10.3284 8.05088 10.8459C7.26479 11.4254 5.4662 11.2438 4.51253 11.3054ZM4.51253 18.4059C3.59847 18.465 1.6759 18.9711 1.39254 17.8616C1.08832 16.6701 1.99769 16.2721 2.95441 16.2021C4.58425 16.083 6.26963 15.9247 7.89056 15.6948C8.85162 15.8308 8.75306 17.4289 8.05088 17.9464C7.26479 18.5259 5.4662 18.3443 4.51253 18.4059ZM4.51253 25.5064C3.59847 25.5655 1.6759 26.0716 1.39254 24.9621C1.08832 23.7706 1.99769 23.3727 2.95441 23.3027C4.58425 23.1836 6.26963 23.0253 7.89056 22.7954C8.85162 22.9313 8.75306 24.5295 8.05088 25.047C7.26479 25.6264 5.4662 25.4447 4.51253 25.5064ZM1.39254 32.0625C1.08832 30.8711 1.99769 30.473 2.95441 30.4032C4.58425 30.2841 6.26963 30.1258 7.89056 29.8959C8.85162 30.0318 8.75306 31.63 8.05088 32.1475C7.26467 32.727 5.4662 32.5454 4.51253 32.607C3.59847 32.6659 1.6759 33.1721 1.39254 32.0625ZM1.39254 39.163C1.08832 37.9716 1.99769 37.5735 2.95441 37.5035C4.58425 37.3845 6.26963 37.2262 7.89056 36.9962C8.85162 37.1322 8.75306 38.7304 8.05088 39.2479C7.26467 39.8274 5.4662 39.6457 4.51253 39.7074C3.59847 39.7664 1.6759 40.2725 1.39254 39.163ZM4.51253 46.8078C3.59847 46.8669 1.6759 47.373 1.39254 46.2635C1.08832 45.0721 1.99769 44.674 2.95441 44.6041C3.54269 44.5611 4.1387 44.5106 4.73577 44.456C4.92608 44.5328 5.16514 44.5069 5.35475 44.3986C6.20623 44.3139 7.0569 44.2151 7.89056 44.0968C8.85162 44.2328 8.75306 45.831 8.05088 46.3485C7.26479 46.9278 5.4662 46.7462 4.51253 46.8078ZM33.2957 12.3111C33.1693 13.7687 33.1525 15.2006 33.2218 16.6616C33.3553 19.4735 33.0658 22.3355 33.0553 25.1534C33.0449 27.9976 32.9311 30.8348 32.8683 33.6755C32.746 39.1999 32.6408 44.7573 32.6592 50.2835C32.6602 50.589 32.6597 50.8919 32.6577 51.1939C30.2564 50.833 27.7051 51.3072 25.2864 51.3759C22.735 51.4484 20.1895 51.4897 17.6316 51.4932C15.0732 51.4967 12.5586 51.4372 10.0059 51.3134C8.9449 51.262 7.74221 51.3035 6.69256 51.1248C5.74217 50.9629 5.5971 50.8394 5.49842 49.8811C5.43819 49.2949 5.44065 48.7093 5.39624 48.1259C6.686 48.0955 8.18482 48.0689 9.17353 47.339C10.0755 46.6732 10.1094 44.784 9.82474 43.8251C9.5306 42.8339 8.60951 42.6812 7.70014 42.7846C7.03135 42.8607 6.37709 42.9654 5.72729 43.0849C5.71299 43.0852 5.69846 43.0859 5.68417 43.0862C5.66272 42.8413 5.63542 42.5993 5.63565 42.3871C5.63612 41.9235 5.61772 41.4676 5.51483 41.0227C6.77705 40.9928 8.21494 40.9463 9.17353 40.2386C10.0755 39.5727 10.1094 37.6835 9.82474 36.7246C9.5306 35.7335 8.60951 35.5807 7.70014 35.6842C7.03135 35.7603 6.37709 35.865 5.72729 35.9846C5.72378 35.9846 5.72014 35.9848 5.71663 35.9849C5.71335 35.9626 5.71147 35.9407 5.70608 35.9179C5.55456 35.2698 5.61749 34.5873 5.55854 33.9212C6.81022 33.8911 8.22595 33.8377 9.17365 33.1382C10.0756 32.4723 10.1095 30.5832 9.82485 29.6242C9.53071 28.6332 8.60962 28.4804 7.70025 28.5838C7.08631 28.6537 6.48526 28.7494 5.88795 28.8569C5.92194 28.6895 5.92756 28.5104 5.90999 28.3479C5.86745 27.9554 5.75506 27.603 5.75038 27.2021C5.74885 27.0711 5.74979 26.9431 5.74967 26.8158C6.95225 26.7835 8.27412 26.7019 9.17376 26.0378C10.0758 25.372 10.1096 23.4828 9.82497 22.5239C9.53083 21.5327 8.60974 21.38 7.70037 21.4834C7.16705 21.5441 6.64428 21.6262 6.12444 21.7162C6.1235 21.1045 6.01815 20.4709 5.91631 19.8702C5.9087 19.825 5.89827 19.7708 5.88479 19.7115C7.05045 19.6761 8.30775 19.5766 9.17376 18.9374C10.0758 18.2715 10.1096 16.3823 9.82497 15.4234C9.53083 14.4323 8.60974 14.2795 7.70037 14.383C7.06967 14.4547 6.45221 14.5533 5.83874 14.6644C5.85128 14.2597 5.73432 13.8647 5.74241 13.4473C5.74803 13.1584 5.72354 12.887 5.68089 12.6169C6.90151 12.5857 8.25701 12.5135 9.17365 11.8369C10.0756 11.171 10.1095 9.28185 9.82485 8.32291C9.53071 7.33186 8.60962 7.17904 7.70025 7.28252C7.03147 7.35857 6.37721 7.46334 5.72741 7.58287C5.67221 7.58369 5.61631 7.58639 5.561 7.58767C5.6885 6.80662 5.68499 6.02077 5.75003 5.22659C5.76924 4.99104 5.65299 3.28492 5.7485 2.84652C5.80827 2.91894 6.20213 2.83551 6.28018 2.83855C6.69373 2.85426 7.14549 2.73883 7.56385 2.71504C8.65873 2.65293 9.75642 2.56223 10.8531 2.52754C15.0242 2.39547 19.1859 2.84734 23.3524 2.97859C27.4202 3.10679 31.4806 3.29617 35.5486 3.29382C37.3453 3.29277 39.1331 3.5432 40.9271 3.49304C41.7358 3.47043 42.5233 3.12836 42.6135 4.15527C42.6818 4.93468 42.8937 6.33002 42.5216 7.04217C41.9859 8.0672 39.8819 7.48678 38.7826 7.43193C37.0021 7.3431 34.6376 7.16193 33.8183 9.08673C33.3926 10.0867 33.3881 11.2451 33.2957 12.3111ZM58.3265 52.6573C58.1836 53.8066 58.1454 55.8118 57.2519 56.699C56.5035 57.4421 54.9023 57.299 53.9572 57.3106C52.7218 57.326 51.5009 57.4808 50.2657 57.4277C47.8775 57.3251 45.4916 57.1963 43.1052 57.0699C40.7246 56.9438 38.421 56.6457 36.0655 56.271C35.7111 56.2147 35.1967 56.2397 34.8711 56.1042C34.1017 55.7838 33.9407 54.938 33.9861 54.1606C34.0528 53.0185 34.099 51.9221 34.0811 50.7718C34.0452 48.4746 34.1736 46.1787 34.1719 43.8787C34.17 41.333 34.0335 38.7497 34.2142 36.211C34.5587 31.3683 34.5381 26.41 34.5516 21.5524C34.5587 18.9922 34.4739 16.4034 34.5803 13.8485C34.6286 12.6894 34.4738 10.2585 35.2191 9.35122C35.9687 8.43892 38.5342 8.80431 39.5563 8.90005C40.8226 9.01864 42.0882 8.83161 43.3526 8.9181C44.5432 8.99966 45.7296 9.1397 46.9276 9.13431C49.7178 9.12189 52.4595 9.25466 55.2481 9.11146C55.2598 9.11087 55.2698 9.10794 55.281 9.10665C55.9686 9.15493 56.7673 9.25302 57.0732 9.65321C57.595 10.3359 57.4424 11.7877 57.5103 12.6476C57.6864 14.881 58.0706 17.1594 58.0997 19.3986C58.1317 21.8464 58.0917 24.2997 58.085 26.7481C58.0781 29.2932 58.2197 31.8011 58.3237 34.3405C58.4273 36.8707 58.3336 39.4037 58.3766 41.9346C58.417 44.3086 58.563 46.6826 58.5998 49.0522C58.6183 50.2559 58.4747 51.4645 58.3265 52.6573Z" fill="#008D30"/>
<path d="M56.5411 39.0867C56.1774 31.4897 56.1345 23.8952 55.861 16.2984C55.8101 14.8876 56.2287 12.3622 54.8785 11.4125C53.3922 10.3672 50.752 10.8738 49.0558 10.8583C46.3338 10.8333 43.5965 10.8287 40.8596 10.872C39.9539 10.8863 39.0467 10.9036 38.1478 11.0254C37.1902 11.1552 36.8936 11.0631 36.8856 12.1029C36.8334 12.5973 36.8522 13.1093 36.879 13.6147C36.8779 14.7031 36.8878 15.7904 36.913 16.8786C36.894 17.6764 36.8611 18.4737 36.8157 19.2652C36.7327 20.7125 36.6409 22.1673 36.7559 23.6241C36.7995 24.1771 36.8884 24.7959 36.9629 25.4285C36.9836 26.3972 36.9825 27.366 36.9706 28.3349C36.9684 28.3445 36.9671 28.3547 36.9649 28.3643C36.9457 28.4487 36.9498 28.5246 36.9681 28.5928C36.9325 31.0894 36.8312 33.5862 36.8488 36.0824C36.8626 38.0621 36.8134 40.0326 36.7176 42.0044C36.671 42.9655 36.6568 43.9286 36.6118 44.89C36.5721 45.7412 36.4615 46.8406 36.7673 47.6607C37.1912 48.7972 38.4407 49.2797 39.5436 49.4909C41.244 49.8163 42.9396 49.8172 44.653 49.8391C46.5902 49.8638 48.5178 49.6486 50.4537 49.6941C51.3203 49.7145 52.1373 49.6343 52.9995 49.577C53.6819 49.5317 54.5359 49.6873 55.1672 49.352C56.3278 48.7355 56.2667 46.9796 56.3738 45.8622C56.5867 43.6403 56.6474 41.3073 56.5411 39.0867ZM55.1057 46.3633C54.976 47.5995 54.7884 48.2729 53.4993 48.3115C52.7847 48.3331 52.0765 48.4835 51.3616 48.5063C49.5933 48.5627 47.8231 48.4646 46.0632 48.574C45.2365 48.6254 44.443 48.6285 43.6183 48.5563C43.0187 48.504 42.4555 48.6408 41.8527 48.6146C41.1765 48.5852 40.1111 48.4237 39.4517 48.254C37.9697 47.8728 37.7859 46.7639 37.8056 45.395C37.8554 41.9444 37.9857 38.5169 37.9281 35.0558C37.8877 32.6346 37.9673 30.2182 37.9875 27.8002C38.0621 27.0965 38.0094 26.3744 37.9821 25.6637C37.9786 25.3837 37.976 25.1036 37.9692 24.8234C37.9801 23.1597 37.8298 21.4987 37.9456 19.8296C38.0386 18.4893 38.0723 17.1324 38.084 15.7871C38.0919 14.8804 37.5028 12.8792 38.5634 12.3908C38.904 12.234 39.2923 12.2306 39.6672 12.23C43.5243 12.2239 47.3743 12.1683 51.23 12.1116C52.4004 12.0944 53.8748 11.8695 54.5116 13.1629C54.7196 13.5853 54.5276 14.4109 54.5382 14.883C54.5486 15.3568 54.6168 15.8247 54.6346 16.2982C54.8802 22.7986 54.8587 29.301 55.1821 35.7977C55.3572 39.3092 55.4738 42.8553 55.1057 46.3633Z" fill="#008D30"/>
<path d="M49.128 51.8339C48.9212 51.4305 48.6187 51.0674 48.2207 50.7859C46.555 49.6081 43.9007 51.8508 44.1353 53.6986C44.3532 55.4143 46.181 56.3116 47.7126 55.7753C49.3925 55.1871 49.8587 53.2596 49.128 51.8339ZM47.6155 54.6172C46.7337 55.0987 45.6705 54.8946 45.209 53.9298C44.8821 53.2461 45.2535 52.3973 45.8565 51.9035C45.9445 51.8822 46.0332 51.8462 46.1514 51.7876C46.3821 51.6734 46.5684 51.5661 46.7412 51.5058C46.7622 51.5033 46.783 51.4983 46.804 51.4969C46.8591 51.4931 46.9073 51.4794 46.9496 51.4593C47.1651 51.4403 47.3791 51.5262 47.6576 51.8062C48.4483 52.6015 48.7521 53.9965 47.6155 54.6172Z" fill="#008D30"/>
<path d="M51.538 22.3059C50.3905 22.137 49.1827 22.2973 48.0277 22.312C47.4658 22.3191 46.9036 22.3151 46.3421 22.3211C45.3592 22.2651 44.3701 22.2324 43.3866 22.2119C42.5988 22.1955 41.5615 22.0016 40.8219 22.3593C39.9809 22.7661 39.3955 24.2479 39.9372 25.0956C40.5603 26.0704 43.0199 25.9823 43.9864 26.0766C46.1311 26.2861 48.3567 26.2952 50.506 26.1312C51.9927 26.0178 53.1029 25.6374 53.2976 23.9953C53.4492 22.7158 52.6747 22.4732 51.538 22.3059ZM52.4023 24.0703C52.2939 25.5768 49.798 25.3093 48.7764 25.3504C47.4631 25.4034 46.1275 25.3496 44.8152 25.287C44.1681 25.2561 43.5258 25.1713 42.8827 25.0974C42.3297 25.0338 41.3383 25.1195 40.8658 24.7737C40.3676 24.1156 40.6219 23.5361 41.6286 23.0351C41.9472 23.0554 42.2662 23.0622 42.5855 23.0554C43.2567 23.0644 43.9257 23.0771 44.5967 23.0955C47.0188 23.1622 49.4195 23.2694 51.8417 23.1723C52.1979 23.3084 52.4386 23.564 52.4023 24.0703Z" fill="#008D30"/>
<path d="M51.538 27.4153C50.3905 27.2464 49.1827 27.4067 48.0277 27.4214C47.4658 27.4285 46.9036 27.4245 46.3421 27.4305C45.3592 27.3745 44.3701 27.3418 43.3866 27.3213C42.5988 27.3049 41.5615 27.1109 40.8219 27.4687C39.9809 27.8753 39.3955 29.3573 39.9372 30.205C40.5603 31.1798 43.0199 31.0917 43.9864 31.186C46.1311 31.3955 48.3567 31.4046 50.506 31.2406C51.9927 31.1272 53.1029 30.7467 53.2976 29.1046C53.4492 27.8252 52.6747 27.5826 51.538 27.4153ZM52.4023 29.1796C52.2939 30.6863 49.798 30.4187 48.7764 30.4598C47.4631 30.5128 46.1275 30.459 44.8152 30.3964C44.1681 30.3655 43.5258 30.2809 42.8827 30.2068C42.3297 30.1432 41.3383 30.2289 40.8658 29.8831C40.3676 29.225 40.6219 28.6455 41.6286 28.1445C41.9472 28.1648 42.2662 28.1715 42.5855 28.1648C43.2567 28.1738 43.9257 28.1865 44.5967 28.2049C47.0188 28.2716 49.4195 28.3788 51.8417 28.2818C52.1979 28.4178 52.4386 28.6734 52.4023 29.1796Z" fill="#008D30"/>
<path d="M51.538 32.5249C50.3905 32.356 49.1827 32.5163 48.0277 32.531C47.4658 32.5381 46.9036 32.5341 46.3421 32.5401C45.3592 32.4841 44.3701 32.4514 43.3866 32.4309C42.5988 32.4145 41.5615 32.2205 40.8219 32.5783C39.9809 32.985 39.3955 34.4669 39.9372 35.3146C40.5603 36.2894 43.0199 36.2012 43.9864 36.2956C46.1311 36.5052 48.3567 36.5142 50.506 36.3502C51.9927 36.2368 53.1029 35.8564 53.2976 34.2143C53.4492 32.9348 52.6747 32.6922 51.538 32.5249ZM52.4023 34.2893C52.2939 35.7958 49.798 35.5283 48.7764 35.5694C47.4631 35.6224 46.1275 35.5686 44.8152 35.506C44.1681 35.4752 43.5258 35.3905 42.8827 35.3164C42.3297 35.2528 41.3383 35.3385 40.8658 34.9927C40.3676 34.3346 40.6219 33.7551 41.6286 33.2541C41.9472 33.2744 42.2662 33.2812 42.5855 33.2744C43.2567 33.2834 43.9257 33.2961 44.5967 33.3145C47.0188 33.3812 49.4195 33.4884 51.8417 33.3912C52.1979 33.5274 52.4386 33.783 52.4023 34.2893Z" fill="#008D30"/>
<path d="M46.3701 39.0031C44.8133 39.1172 43.1697 40.8711 43.524 42.4054C43.529 42.8364 43.6723 43.285 44.0007 43.7336C45.3185 45.5342 48.225 44.9744 49.2105 43.1161C50.3066 41.0492 48.586 38.8405 46.3701 39.0031ZM48.26 43.0199C47.4852 44.0552 45.7033 44.3943 44.7599 43.3983C44.154 42.7585 44.1187 41.9757 44.406 41.2775C44.4823 41.1354 44.5786 40.9926 44.7107 40.8446C45.218 40.276 45.7118 39.8044 46.5156 39.8018C48.2436 39.7962 49.3492 41.5645 48.26 43.0199Z" fill="#008D30"/>
<path d="M25.7145 7.19654C23.5984 6.4824 21.0037 6.69568 18.7993 6.70412C17.5431 6.70893 16.2885 6.6317 15.0338 6.63779C14.4842 6.64049 13.402 6.60205 12.9774 7.01631C12.6499 7.33588 12.6505 7.7867 12.6553 8.21279C12.667 9.26302 12.7575 10.3038 12.8349 11.3485C12.8388 11.5198 12.8442 11.6905 12.8463 11.8623C12.8552 12.6044 12.7729 13.4166 13.2617 14.0461C14.226 15.288 17.0134 15.0256 18.3832 15.0596C20.5727 15.1139 22.9823 15.2671 25.1373 14.8132C26.9431 14.433 27.3182 12.7101 27.4131 11.082C27.5031 9.53712 27.3509 7.74884 25.7145 7.19654ZM26.539 10.7961C26.5222 11.4945 26.5003 12.4417 26.1483 13.0443C25.5703 14.0339 24.2767 14.11 23.231 14.146C21.7831 14.1958 20.34 14.2274 18.8908 14.2111C17.5192 14.1957 14.5345 14.4788 13.7164 13.1241C13.608 12.9444 13.5687 12.6652 13.5592 12.3536C13.5807 12.3091 13.5948 12.2579 13.5956 12.1967C13.5974 12.042 13.5869 11.8596 13.5705 11.6614C13.5855 11.314 13.6038 10.9831 13.5783 10.75C13.4997 10.0279 13.4608 9.31681 13.4402 8.59892C13.4941 8.29201 13.5901 8.03185 13.7551 7.85736C14.4947 7.07537 16.7061 7.60506 17.6978 7.60564C19.2879 7.60658 20.8684 7.61935 22.4569 7.67701C23.3067 7.70783 24.236 7.67818 25.059 7.93248C26.4215 8.35341 26.5676 9.60544 26.539 10.7961Z" fill="#008D30"/>
<path d="M21.026 15.569C20.9618 15.207 20.4457 15.3259 20.4208 15.6509C20.3144 17.0419 20.7226 18.7122 19.1209 19.3953C18.029 19.861 16.8339 19.6225 15.7026 19.769C14.913 19.8713 14.3177 20.2446 14.0315 21.015C13.8717 21.4453 13.8534 21.9422 13.8331 22.3976C13.824 22.6024 13.8706 22.9245 13.8861 23.2282C13.6491 22.9222 13.432 22.5553 13.1955 22.3412C12.9018 22.0752 12.306 22.3293 12.4706 22.7632C12.7307 23.4485 13.3913 23.8934 13.8135 24.4854C13.9448 24.6694 14.2109 24.7924 14.423 24.6452C14.7311 24.4314 14.9472 24.1345 15.2484 23.9066C15.6068 23.6353 16.007 23.5103 16.328 23.196C16.6034 22.9263 16.3234 22.4275 15.9473 22.542C15.4257 22.7007 15.0789 22.9597 14.7371 23.2493C14.7029 22.1907 14.3453 21.0716 16.0074 20.6322C16.5365 20.4922 17.2053 20.6567 17.7622 20.5884C18.2843 20.5246 18.9302 20.4433 19.428 20.2577C21.4203 19.5155 21.3339 17.3065 21.026 15.569Z" fill="#008D30"/>
<path d="M19.3522 27.6042C19.264 25.1871 17.05 25.2343 15.1253 25.5698C14.3176 25.5357 13.5107 25.5414 12.7258 25.6289C11.646 25.7492 10.8241 26.1358 10.6074 27.2662C10.4577 28.0472 10.3439 29.3277 11.0176 29.9187C11.744 30.5561 13.5337 30.481 14.4149 30.495C16.7008 30.531 19.4609 30.5903 19.3522 27.6042ZM14.1441 29.6184C13.6743 29.5961 12.73 29.645 12.2927 29.4377C11.7889 29.1989 11.4314 28.6489 11.4191 28.1517C11.3516 25.4192 16.0123 26.4851 17.5587 26.4042C18.006 26.5758 18.339 26.8741 18.4417 27.3934C18.9264 29.8421 15.7721 29.6956 14.1441 29.6184Z" fill="#008D30"/>
<path d="M27.4027 28.1096C26.458 27.5454 25.1107 27.5602 24.0549 27.5081C22.9239 27.4523 21.6059 27.4623 20.5312 27.8484C20.4489 27.878 20.4238 27.97 20.4816 28.0364C20.7543 28.35 21.1627 28.3345 21.5582 28.3469C22.5613 28.3787 23.5397 28.311 24.5456 28.3907C26.1144 28.5149 27.4903 28.567 27.8393 30.5204C27.9868 31.3457 27.9508 32.2749 27.925 33.106C27.8725 34.8054 27.9607 36.534 27.8342 38.2221C27.737 39.5177 27.8922 40.0595 26.3414 40.1687C25.9316 40.1975 25.423 40.2393 24.9449 40.2416C25.1131 39.9494 25.3065 39.6588 25.4434 39.3722C25.6799 38.8772 25.0287 38.5003 24.7121 38.9445C24.3811 39.4091 23.3072 40.1356 23.4147 40.8235C23.507 41.4151 24.6742 42.1667 25.0408 42.6198C25.3585 43.0123 26.0579 42.4811 25.7472 42.0747C25.6119 41.8979 25.0995 41.486 24.7327 41.1337C25.422 41.1652 26.1699 41.1129 26.8181 41.0688C27.6232 41.0141 28.2295 40.8507 28.5212 40.0321C28.7991 39.2522 28.7949 38.1604 28.7868 37.332C28.774 35.9992 28.7804 34.6615 28.8192 33.3242C28.8684 31.6182 29.1083 29.1286 27.4027 28.1096Z" fill="#008D30"/>
<path d="M22.219 41.3077C22.1819 40.3964 22.2059 39.5073 21.9876 38.6143C21.9586 38.4963 21.8897 38.4292 21.8081 38.3971C21.6481 38.1297 21.4132 37.9265 21.0741 37.8447C20.4246 37.6883 19.5466 37.9172 18.8833 37.9336C17.8406 37.9594 16.7952 37.9327 15.7529 37.9082C14.7466 37.8845 13.7363 37.9266 12.7361 38.0375C12.1863 38.0984 11.6048 38.1019 11.2283 38.5841C10.4559 39.5733 10.8698 42.0777 11.1159 43.1983C11.3723 44.3662 11.7955 44.7032 12.9527 44.6446C14.9341 44.5443 16.9202 44.6237 18.8995 44.4442C20.0266 44.342 21.6864 44.3216 22.1268 43.0663C22.3163 42.5268 22.2421 41.8667 22.219 41.3077ZM21.3739 41.9813C21.1053 43.6939 19.25 43.5184 17.9356 43.6068C16.7311 43.6878 15.5192 43.703 14.3118 43.7232C13.0823 43.7438 12.1202 44.0213 11.9143 42.4855C11.8475 41.9869 11.8 41.4811 11.7759 40.979C11.7383 40.2026 11.6234 39.7507 12.263 39.2557C13.1917 38.5369 14.8294 38.7424 15.9852 38.7747C17.0532 38.8047 18.1275 38.8275 19.1957 38.8008C19.5592 38.7918 20.3213 38.5854 20.6464 38.7046C21.4663 39.0053 21.3297 40.1273 21.4104 40.8143C21.4165 40.8664 21.4377 40.9089 21.4643 40.9461C21.4514 41.3124 21.4231 41.6673 21.3739 41.9813Z" fill="#008D30"/>
<path d="M23.4171 32.7756C21.6374 32.3179 19.6468 32.6541 17.8236 32.5442C15.8773 32.4269 13.9051 32.7028 11.9731 32.5378C11.6241 32.5081 11.5448 33.083 11.89 33.1519C13.7165 33.5162 15.7029 33.2582 17.5599 33.3728C19.392 33.4859 21.6163 33.7218 23.417 33.3092C23.6853 33.2477 23.6762 32.8423 23.4171 32.7756Z" fill="#008D30"/>
<path d="M23.4171 35.0784C21.6374 34.6206 19.6468 34.9568 17.8236 34.8469C15.8773 34.7296 13.9051 35.0056 11.9731 34.8406C11.6241 34.8108 11.5448 35.3857 11.89 35.4546C13.7165 35.819 15.7029 35.5609 17.5599 35.6755C19.392 35.7886 21.6163 36.0245 23.417 35.6119C23.6853 35.5504 23.6762 35.1449 23.4171 35.0784Z" fill="#008D30"/>
<path d="M30.4443 20.8389C28.7265 20.8606 27.0096 20.9052 25.292 20.9121C24.508 20.9153 23.7238 20.8949 22.9398 20.9133C22.3357 20.9275 21.3885 20.8405 20.8259 21.081C20.4467 21.2432 20.6369 21.5223 20.8674 21.6048C20.8581 21.6016 21.2637 21.555 21.3313 21.5546C21.8057 21.5508 22.2927 21.623 22.7687 21.6367C23.6098 21.661 24.451 21.6603 25.292 21.6637C26.9956 21.6705 28.7483 21.7172 30.4443 21.5451C30.8865 21.5002 30.9079 20.833 30.4443 20.8389Z" fill="#008D30"/>
<path d="M30.4443 22.7581C28.7265 22.7798 27.0096 22.8244 25.292 22.8313C24.508 22.8345 23.7238 22.8141 22.9398 22.8325C22.3357 22.8467 21.3885 22.7596 20.8259 23.0002C20.4467 23.1624 20.6369 23.4415 20.8674 23.524C20.8581 23.5207 21.2637 23.4742 21.3313 23.4737C21.8057 23.4701 22.2927 23.5422 22.7687 23.5559C23.6098 23.5802 24.451 23.5795 25.292 23.5828C26.9956 23.5896 28.7483 23.6364 30.4443 23.4643C30.8865 23.4194 30.9079 22.7522 30.4443 22.7581Z" fill="#008D30"/>
<path d="M30.4443 24.6773C28.7265 24.699 27.0096 24.7436 25.292 24.7505C24.508 24.7537 23.7238 24.7333 22.9398 24.7517C22.3357 24.7659 21.3885 24.6789 20.8259 24.9194C20.4467 25.0816 20.6369 25.3606 20.8674 25.4432C20.8581 25.4399 21.2637 25.3934 21.3313 25.393C21.8057 25.3892 22.2927 25.4614 22.7687 25.4752C23.6098 25.4995 24.451 25.4988 25.292 25.5022C26.9956 25.509 28.7483 25.5557 30.4443 25.3836C30.8865 25.3386 30.9079 24.6714 30.4443 24.6773Z" fill="#008D30"/>
</g>
<defs>
<clipPath id="clip0_5_808">
<rect width="60" height="60" fill="white"/>
</clipPath>
</defs>
</svg>
