<svg width="60" height="60" viewBox="0 0 60 60" fill="none" xmlns="http://www.w3.org/2000/svg">
<g clip-path="url(#clip0_5_801)">
<path d="M6.73874 26.1561L11.0646 23.3267C11.1305 23.2772 11.2289 23.2607 11.3113 23.2607C11.6565 23.2607 12.101 23.6228 12.101 24.0833C12.101 24.2806 12.0021 24.4619 11.8542 24.5603L8.39996 26.8304L11.8542 29.1004C12.0021 29.1824 12.101 29.3636 12.101 29.5774C12.101 30.0379 11.6565 30.3831 11.3113 30.3831C11.2289 30.3831 11.1305 30.3666 11.0646 30.3176L6.73874 27.4882C6.492 27.3239 6.37665 27.0442 6.37665 26.8304C6.37665 26.6166 6.492 26.3204 6.73874 26.1561Z" fill="#FE8A08"/>
<path d="M21.2462 19.346C21.2462 19.4449 21.2297 19.5273 21.1803 19.6093L15.1433 31.6503C15.0449 31.8476 14.8311 31.9625 14.6008 31.9625C14.2223 31.9625 13.959 31.6503 13.959 31.3541C13.959 31.2717 13.9755 31.1898 14.0085 31.1074L20.0615 19.0174C20.1604 18.8036 20.3412 18.7212 20.555 18.7212C20.8841 18.7212 21.2462 18.9679 21.2462 19.346Z" fill="#FE8A08"/>
<path d="M28.4505 27.4882L24.1241 30.3177C24.0582 30.3671 23.9763 30.3836 23.8939 30.3836C23.5318 30.3836 23.1042 30.038 23.1042 29.5775C23.1042 29.3637 23.2031 29.1829 23.3345 29.1005L26.8053 26.8304L23.3345 24.5608C23.2031 24.4619 23.1042 24.2811 23.1042 24.0838C23.1042 23.6229 23.5318 23.2612 23.8939 23.2612C23.9763 23.2612 24.0582 23.2777 24.1241 23.3271L28.4505 26.1561C28.6972 26.3209 28.8121 26.6171 28.8121 26.8309C28.8121 27.0442 28.7132 27.3239 28.4505 27.4882Z" fill="#FE8A08"/>
<path d="M34.7699 35.0583V16.3041C34.7699 14.2479 33.0968 12.5752 31.041 12.5752H4.08051C2.02423 12.5752 0.351562 14.2479 0.351562 16.3041V35.0583C0.351562 37.1145 2.02423 38.7872 4.08051 38.7872H31.041C33.0968 38.7872 34.7699 37.1145 34.7699 35.0583ZM2.10938 35.0583V16.3041C2.10938 15.2174 2.99377 14.333 4.08051 14.333H31.041C32.1277 14.333 33.0121 15.2174 33.0121 16.3041V35.0583C33.0121 36.145 32.1277 37.0294 31.041 37.0294H4.08051C2.99377 37.0294 2.10938 36.145 2.10938 35.0583Z" fill="#FE8A08"/>
<path d="M47.5827 43.1313C45.06 43.1313 43.0074 45.1835 43.0074 47.7062C43.0074 47.7717 43.0087 47.8367 43.0115 47.9012C43.0092 47.9296 43.0074 47.958 43.0074 47.9873C43.0074 48.0619 43.017 48.1347 43.0344 48.2038C43.2834 50.4936 45.228 52.2816 47.5827 52.2816C50.1054 52.2816 52.1576 50.229 52.1576 47.7062C52.1576 45.1835 50.1054 43.1313 47.5827 43.1313ZM47.5827 44.8892C48.9308 44.8892 50.061 45.8413 50.3362 47.1084H44.8293C45.1044 45.8409 46.2341 44.8892 47.5827 44.8892ZM47.5827 50.5238C46.4424 50.5238 45.4582 49.8426 45.0151 48.8658H50.1498C49.7072 49.8426 48.723 50.5238 47.5827 50.5238Z" fill="#FE8A08"/>
<path d="M57.4246 44.6507H56.9614C56.8011 44.1673 56.6029 43.6945 56.3699 43.2404L56.7027 42.9076C57.1651 42.4452 57.42 41.8295 57.42 41.174C57.42 40.519 57.1655 39.9033 56.7027 39.4405L55.8485 38.5863C55.3853 38.1235 54.7696 37.868 54.115 37.868C53.6101 37.868 53.1285 38.02 52.722 38.3015V3.74542C52.722 1.68045 51.042 0 48.9766 0H18.8054C16.74 0 15.06 1.68045 15.06 3.74542V9.93851C15.06 10.4237 15.4532 10.8174 15.9389 10.8174C16.4241 10.8174 16.8178 10.4237 16.8178 9.93851V7.82547H50.9642V38.4421C50.8562 38.4018 50.7477 38.3638 50.6383 38.3276V37.8644C50.6383 36.5121 49.5387 35.4126 48.187 35.4126H46.9785C45.6267 35.4126 44.5271 36.5121 44.5271 37.8644V38.2773C44.025 38.4343 43.5352 38.6316 43.0641 38.8664L42.784 38.5863C42.3212 38.123 41.7055 37.868 41.0504 37.868C40.3958 37.868 39.7797 38.123 39.3169 38.5863L38.4627 39.44C37.9994 39.9033 37.7444 40.519 37.7444 41.174C37.7444 41.8291 37.9994 42.4443 38.4627 42.9076L38.6925 43.1374C38.4357 43.623 38.2196 44.1302 38.047 44.6507H37.7403C36.3885 44.6507 35.289 45.7503 35.289 47.1021V47.108H16.8178V41.424C16.8178 40.9383 16.4241 40.545 15.9389 40.545C15.4532 40.545 15.06 40.9383 15.06 41.424V51.097C15.06 53.1624 16.74 54.8424 18.8054 54.8424H37.8191C37.9262 55.2663 38.1454 55.6549 38.4627 55.9717L39.3169 56.8263C39.7801 57.2891 40.3958 57.5446 41.0504 57.5446C41.705 57.5446 42.3207 57.2891 42.784 56.8263L42.9597 56.6501C43.4628 56.9083 43.9879 57.1234 44.5271 57.2923V57.5482C44.5271 58.9 45.6267 60 46.9785 60H48.187C49.5387 60 50.6383 58.9 50.6383 57.5482V57.242C51.1588 57.0694 51.6664 56.8529 52.1516 56.5965L52.3814 56.8263C52.8447 57.2896 53.4599 57.5446 54.115 57.5446C54.7696 57.5446 55.3853 57.2896 55.8485 56.8263L56.7027 55.9721C57.166 55.5089 57.421 54.8932 57.421 54.2386C57.421 53.584 57.166 52.9683 56.7027 52.505L56.4221 52.2244C56.657 51.7538 56.8542 51.264 57.0113 50.7619H57.4246C58.7764 50.7619 59.8764 49.6623 59.8764 48.3105V47.1021C59.8764 45.7503 58.7764 44.6507 57.4246 44.6507ZM16.8178 6.06766V3.74542C16.8178 2.64954 17.709 1.75781 18.8054 1.75781H48.9766C50.0725 1.75781 50.9642 2.64954 50.9642 3.74542V6.06766H16.8178ZM16.8178 51.097V48.8658H35.3526C35.6049 49.9512 36.5799 50.7619 37.7403 50.7619H37.9967C38.1651 51.3011 38.3807 51.8262 38.6389 52.3293L38.4627 52.505C38.2887 52.6785 38.1445 52.874 38.0315 53.0846H18.8054C17.709 53.0846 16.8178 52.1933 16.8178 51.097ZM58.1186 48.3105C58.1186 48.6932 57.8073 49.0041 57.4246 49.0041H56.7645C56.1301 49.0041 55.567 49.427 55.3949 50.0327C55.2383 50.5833 55.0223 51.1194 54.7536 51.6257C54.4647 52.1704 54.5691 52.8575 55.0081 53.2965L55.4594 53.7479C55.5927 53.8811 55.6627 54.0509 55.6627 54.2386C55.6627 54.4267 55.5927 54.5966 55.4599 54.7293L54.6057 55.5835C54.4725 55.7167 54.3027 55.7867 54.115 55.7867C53.9268 55.7867 53.757 55.7162 53.6243 55.5835L53.2187 55.1779C52.9486 54.9083 52.5902 54.7595 52.2089 54.7595C51.9672 54.7595 51.7278 54.8222 51.5172 54.9403C51.0008 55.231 50.452 55.4654 49.8866 55.6366C49.2943 55.816 48.8805 56.3786 48.8805 57.0049V57.5487C48.8805 57.9314 48.5692 58.2426 48.1865 58.2426H46.9785C46.5958 58.2426 46.2845 57.9314 46.2845 57.5487V57.0474C46.2845 56.4116 45.8624 55.8476 45.2577 55.6764C44.6741 55.5107 44.1078 55.2786 43.5736 54.987C43.3681 54.8744 43.1355 54.8154 42.9007 54.8154C42.5249 54.8154 42.1564 54.9683 41.89 55.2347L41.5407 55.5835C41.4079 55.7167 41.2381 55.7867 41.05 55.7867C40.8623 55.7867 40.6924 55.7167 40.5597 55.584L39.705 54.7293C39.5723 54.5966 39.5023 54.4267 39.5023 54.239C39.5023 54.2088 39.5041 54.1791 39.5073 54.1498C39.5123 54.1273 39.5164 54.1045 39.5192 54.0811C39.5476 53.9561 39.6107 53.8431 39.705 53.7483L40.0543 53.399C40.4988 52.9546 40.6004 52.262 40.3015 51.7149C40.0104 51.1812 39.7783 50.6149 39.6126 50.0317C39.4409 49.427 38.8774 49.0045 38.2411 49.0045H37.7403C37.3576 49.0045 37.0464 48.6932 37.0464 48.3105V47.1025C37.0464 46.7198 37.3576 46.4085 37.7403 46.4085H38.2837C38.9099 46.4085 39.473 45.9947 39.6524 45.4024C39.8236 44.837 40.058 44.2882 40.3482 43.7723C40.6586 43.2207 40.5606 42.5208 40.1106 42.0699L39.705 41.6647C39.5723 41.532 39.5023 41.3622 39.5023 41.1745C39.5023 40.9863 39.5723 40.8165 39.705 40.6837L40.5597 39.8296C40.6924 39.6964 40.8623 39.6263 41.0504 39.6263C41.2381 39.6263 41.4079 39.6964 41.5407 39.8296L41.9925 40.2809C42.2585 40.5469 42.6265 40.6998 43.0023 40.6998C43.2353 40.6998 43.4583 40.6444 43.6633 40.5354C44.1692 40.2667 44.7052 40.0511 45.2559 39.8941C45.8615 39.722 46.2849 39.1589 46.2849 38.5245V37.8644C46.2849 37.4817 46.5958 37.1704 46.9785 37.1704H48.187C48.5696 37.1704 48.8805 37.4817 48.8805 37.8644V38.5703C48.8805 39.1933 49.2938 39.7536 49.8853 39.933C50.4103 40.0919 50.9212 40.3052 51.4037 40.5666C51.4183 40.5748 51.4334 40.583 51.4485 40.5908C51.6518 40.6975 51.8793 40.7542 52.1086 40.7542C52.4895 40.7542 52.8479 40.6055 53.118 40.3358L53.6243 39.8296C53.7575 39.6964 53.9268 39.6263 54.115 39.6263C54.3031 39.6263 54.4725 39.6968 54.6057 39.8296L55.4599 40.6837C55.5904 40.8142 55.6622 40.9886 55.6622 41.1745C55.6622 41.3603 55.5904 41.5343 55.4599 41.6647L54.9536 42.1715C54.5091 42.616 54.4084 43.3104 54.7087 43.8597C54.9765 44.3504 55.1944 44.87 55.356 45.4037C55.5354 45.9956 56.0957 46.409 56.7188 46.409H57.4246C57.8073 46.409 58.1186 46.7203 58.1186 47.1025V48.3105Z" fill="#FE8A08"/>
</g>
<defs>
<clipPath id="clip0_5_801">
<rect width="60" height="60" fill="white"/>
</clipPath>
</defs>
</svg>
