<svg width="60" height="60" viewBox="0 0 60 60" fill="none" xmlns="http://www.w3.org/2000/svg">
<path d="M56.4844 9.375H53.6719V3.51562C53.6719 1.57711 52.0948 0 50.1562 0H9.84375C7.90523 0 6.32812 1.57711 6.32812 3.51562V9.375H3.51562C1.57711 9.375 0 10.9521 0 12.8906V46.6404C0 48.5789 1.57711 50.156 3.51562 50.156H24.1406V52.9683H21.9112C19.9727 52.9683 18.3956 54.5454 18.3956 56.4839V58.8281C18.3956 59.4754 18.9203 60 19.5675 60H40.4326C41.0798 60 41.6045 59.4754 41.6045 58.8281V56.4839C41.6045 54.5454 40.0274 52.9683 38.0889 52.9683H35.8594V50.156H56.4844C58.4229 50.156 60 48.5789 60 46.6404V12.8906C60 10.9521 58.4229 9.375 56.4844 9.375ZM56.4844 11.7188C57.1305 11.7188 57.6562 12.2445 57.6562 12.8906V39.8435H53.6719V11.7188H56.4844ZM9.84375 2.34375H50.1562C50.8024 2.34375 51.3281 2.86945 51.3281 3.51562V9.375H8.67188V3.51562C8.67188 2.86945 9.19758 2.34375 9.84375 2.34375ZM3.51562 11.7188H6.32812V20.5066C6.32812 21.1539 6.85277 21.6785 7.5 21.6785C8.14723 21.6785 8.67188 21.1539 8.67188 20.5066V11.7188H51.3281V39.8435H45.3516V35.9817C45.3516 35.3345 44.8269 34.8098 44.1797 34.8098H42.655C42.387 33.8871 42.0192 33 41.5554 32.1571L42.6341 31.0785C43.0917 30.6209 43.0917 29.8788 42.6341 29.4211L39.0763 25.8633C38.6187 25.4058 37.8766 25.4058 37.4189 25.8633L36.3403 26.942C35.4975 26.4782 34.6103 26.1104 33.6875 25.8425V24.3178C33.6875 23.6706 33.1629 23.1459 32.5157 23.1459H27.4841C26.8369 23.1459 26.3122 23.6706 26.3122 24.3178V25.8425C25.3895 26.1105 24.5024 26.4782 23.6595 26.942L22.5809 25.8633C22.1232 25.4058 21.3812 25.4058 20.9235 25.8633L17.3657 29.4211C16.908 29.8787 16.908 30.6207 17.3657 31.0785L18.4444 32.1571C17.9805 32.9999 17.6128 33.8871 17.3448 34.8098H15.8203C15.1731 34.8098 14.6484 35.3345 14.6484 35.9817V39.8435H8.67188V31.0535C8.67188 30.4063 8.14723 29.8816 7.5 29.8816C6.85277 29.8816 6.32812 30.4063 6.32812 31.0535V39.8435H2.34375V12.8906C2.34375 12.2445 2.86945 11.7188 3.51562 11.7188ZM20.7475 31.1454L19.8518 30.2497L21.7523 28.3492L22.648 29.2448C23.0391 29.6357 23.6502 29.7002 24.1143 29.3994C25.2232 28.6804 26.4393 28.1763 27.7287 27.9014C28.2696 27.7861 28.6562 27.3083 28.6562 26.7553V25.4895H31.344V26.7553C31.344 27.3083 31.7306 27.7861 32.2716 27.9014C33.5609 28.1763 34.7769 28.6802 35.886 29.3994C36.35 29.7002 36.9612 29.6358 37.3522 29.2448L38.2479 28.3492L40.1484 30.2497L39.2528 31.1454C38.8618 31.5364 38.7973 32.1476 39.0982 32.6116C39.8173 33.7207 40.3213 34.9368 40.5962 36.2261C40.7115 36.7669 41.1893 37.1536 41.7423 37.1536H43.0078V39.8435H35.702C35.8063 39.4041 35.8601 38.9524 35.8601 38.4975C35.8601 35.2662 33.2312 32.6374 30 32.6374C26.7688 32.6374 24.1399 35.2663 24.1399 38.4975C24.1399 38.9524 24.1937 39.4041 24.298 39.8435H16.9922V37.1536H18.2579C18.8109 37.1536 19.2887 36.767 19.404 36.2261C19.6789 34.9366 20.183 33.7206 20.902 32.6116C21.203 32.1477 21.1385 31.5364 20.7475 31.1454ZM26.4837 38.4975C26.4837 36.5586 28.061 34.9812 30 34.9812C31.939 34.9812 33.5163 36.5586 33.5163 38.4975C33.5163 38.9603 33.4227 39.4174 33.2449 39.8435H26.7551C26.5773 39.4174 26.4837 38.9603 26.4837 38.4975ZM39.2606 56.4839V57.6562H20.7394V56.4839C20.7394 55.8377 21.2651 55.312 21.9112 55.312H38.0889C38.735 55.312 39.2606 55.8377 39.2606 56.4839ZM33.5156 52.9683H26.4844V50.156H33.5156V52.9683ZM56.4844 47.8123H3.51562C2.86945 47.8123 2.34375 47.2866 2.34375 46.6404V42.1873H57.6562V46.6404C57.6562 47.2866 57.1305 47.8123 56.4844 47.8123Z" fill="#0057C9"/>
<path d="M33.5156 7.03125H46.1719C46.8191 7.03125 47.3438 6.5066 47.3438 5.85938C47.3438 5.21215 46.8191 4.6875 46.1719 4.6875H33.5156C32.8684 4.6875 32.3438 5.21215 32.3438 5.85938C32.3438 6.5066 32.8684 7.03125 33.5156 7.03125Z" fill="#0057C9"/>
<path d="M18.9844 7.03125C19.2926 7.03125 19.5949 6.90586 19.8129 6.68789C20.0309 6.46992 20.1562 6.16758 20.1562 5.85938C20.1562 5.55117 20.0309 5.24883 19.8129 5.03086C19.5949 4.81289 19.2926 4.6875 18.9844 4.6875C18.6762 4.6875 18.3738 4.81289 18.1559 5.03086C17.9379 5.24883 17.8125 5.55117 17.8125 5.85938C17.8125 6.16758 17.9379 6.46992 18.1559 6.68789C18.3738 6.90586 18.6762 7.03125 18.9844 7.03125Z" fill="#0057C9"/>
<path d="M13.8281 7.03125C14.1363 7.03125 14.4387 6.90586 14.6566 6.68789C14.8746 6.46992 15 6.16758 15 5.85938C15 5.55117 14.8746 5.24883 14.6566 5.03086C14.4387 4.81289 14.1363 4.6875 13.8281 4.6875C13.5199 4.6875 13.2176 4.81289 12.9996 5.03086C12.7816 5.24883 12.6562 5.55117 12.6562 5.85938C12.6562 6.16758 12.7816 6.46992 12.9996 6.68789C13.2176 6.90586 13.5199 7.03125 13.8281 7.03125Z" fill="#0057C9"/>
<path d="M24.1406 7.03125C24.4488 7.03125 24.7512 6.90586 24.9691 6.68789C25.1871 6.46992 25.3125 6.16758 25.3125 5.85938C25.3125 5.55117 25.1871 5.24883 24.9691 5.03086C24.7512 4.81289 24.4488 4.6875 24.1406 4.6875C23.8324 4.6875 23.5301 4.81289 23.3121 5.03086C23.0941 5.24883 22.9688 5.55117 22.9688 5.85938C22.9688 6.16758 23.0941 6.46992 23.3121 6.68789C23.5301 6.90586 23.8324 7.03125 24.1406 7.03125Z" fill="#0057C9"/>
<path d="M13.125 17.3435H15.9138C16.5611 17.3435 17.0857 16.8189 17.0857 16.1716C17.0857 15.5244 16.5611 14.9998 15.9138 14.9998H13.125C12.4778 14.9998 11.9531 15.5244 11.9531 16.1716C11.9531 16.8189 12.4778 17.3435 13.125 17.3435Z" fill="#0057C9"/>
<path d="M21.0701 17.3435H31.8206C32.4678 17.3435 32.9925 16.8189 32.9925 16.1716C32.9925 15.5244 32.4678 14.9998 31.8206 14.9998H21.0701C20.4228 14.9998 19.8982 15.5244 19.8982 16.1716C19.8982 16.8189 20.4228 17.3435 21.0701 17.3435Z" fill="#0057C9"/>
<path d="M13.125 22.9683H19.9219C20.5691 22.9683 21.0938 22.4436 21.0938 21.7964C21.0938 21.1492 20.5691 20.6245 19.9219 20.6245H13.125C12.4778 20.6245 11.9531 21.1492 11.9531 21.7964C11.9531 22.4436 12.4778 22.9683 13.125 22.9683Z" fill="#0057C9"/>
<path d="M36.9769 17.3435H46.875C47.5222 17.3435 48.0469 16.8189 48.0469 16.1716C48.0469 15.5244 47.5222 14.9998 46.875 14.9998H36.9769C36.3296 14.9998 35.805 15.5244 35.805 16.1716C35.805 16.8189 36.3296 17.3435 36.9769 17.3435Z" fill="#0057C9"/>
<path d="M46.875 20.6245H38.8548C38.2076 20.6245 37.6829 21.1492 37.6829 21.7964C37.6829 22.4436 38.2076 22.9683 38.8548 22.9683H46.875C47.5222 22.9683 48.0469 22.4436 48.0469 21.7964C48.0469 21.1492 47.5222 20.6245 46.875 20.6245Z" fill="#0057C9"/>
<path d="M7.5 26.9519C7.8082 26.9519 8.11055 26.8265 8.32852 26.6085C8.54648 26.3906 8.67188 26.0882 8.67188 25.78C8.67188 25.4718 8.54648 25.1695 8.32852 24.9515C8.11055 24.7335 7.8082 24.6082 7.5 24.6082C7.1918 24.6082 6.88945 24.7335 6.67148 24.9515C6.45352 25.1695 6.32812 25.4718 6.32812 25.78C6.32812 26.0882 6.45352 26.3906 6.67148 26.6085C6.88945 26.8265 7.1918 26.9519 7.5 26.9519Z" fill="#0057C9"/>
</svg>
