<svg width="60" height="60" viewBox="0 0 60 60" fill="none" xmlns="http://www.w3.org/2000/svg">
<path d="M58.8281 1.20093H1.17187C0.524646 1.20093 0 1.72569 0 2.3728V14.4265C0 15.0737 0.524646 15.5984 1.17187 15.5984H58.8281C59.4754 15.5984 60 15.0737 60 14.4265V2.3728C60 1.72569 59.4754 1.20093 58.8281 1.20093ZM57.6563 13.2547H2.34374V3.54467H57.6563V13.2547Z" fill="#FE8A08"/>
<path d="M55.0088 10.593L54.0517 9.63594C54.3129 9.11938 54.452 8.5454 54.452 7.94985C54.452 6.9499 54.0626 6.00959 53.3555 5.30248C51.8958 3.84292 49.5208 3.8428 48.061 5.30248C47.3539 6.00959 46.9645 6.9499 46.9645 7.94985C46.9645 8.94981 47.354 9.89012 48.061 10.5971C48.7682 11.3042 49.7084 11.6936 50.7084 11.6936C51.304 11.6936 51.8779 11.5544 52.3944 11.2933L53.3515 12.2504C53.5804 12.4791 53.8803 12.5936 54.1801 12.5936C54.48 12.5936 54.78 12.4791 55.0088 12.2504C55.4664 11.7928 55.4664 11.0507 55.0088 10.593ZM51.6984 8.93973C51.434 9.20422 51.0824 9.34989 50.7084 9.34989C50.3343 9.34989 49.9829 9.20422 49.7184 8.93973C49.454 8.67524 49.3082 8.3238 49.3082 7.94985C49.3082 7.57591 49.454 7.22423 49.7184 6.95986C49.9913 6.68693 50.3499 6.55052 50.7084 6.55052C51.0668 6.55052 51.4254 6.68693 51.6984 6.95986C51.9627 7.22435 52.1085 7.57591 52.1085 7.94985C52.1085 8.3238 51.9628 8.67536 51.6984 8.93973Z" fill="#FE8A08"/>
<path d="M41.9929 10.2929C41.9777 10.2178 41.9554 10.1439 41.9261 10.0737C41.8968 10.0033 41.8605 9.93427 41.8183 9.87099C41.7761 9.80771 41.7269 9.74678 41.673 9.69287C41.6191 9.63896 41.5593 9.58974 41.4949 9.54756C41.4316 9.50537 41.3636 9.46904 41.2921 9.43975C41.2218 9.41045 41.148 9.38818 41.073 9.37295C40.9218 9.34248 40.766 9.34248 40.6148 9.37295C40.5398 9.38818 40.466 9.41045 40.3957 9.43975C40.3253 9.46904 40.2574 9.50537 40.1941 9.54756C40.1296 9.58974 40.0699 9.63896 40.0148 9.69287C39.9609 9.74678 39.9129 9.8076 39.8695 9.87099C39.8273 9.93427 39.791 10.0034 39.7617 10.0737C39.7324 10.144 39.7101 10.2178 39.6949 10.2929C39.6796 10.3689 39.6726 10.4452 39.6726 10.5226C39.6726 10.5986 39.6796 10.6749 39.6949 10.7511C39.7101 10.8261 39.7324 10.8999 39.7617 10.9701C39.791 11.0405 39.8273 11.1085 39.8695 11.1728C39.9129 11.2361 39.9609 11.297 40.0148 11.3509C40.0699 11.4049 40.1296 11.4542 40.1941 11.4963C40.2574 11.5384 40.3253 11.5748 40.3957 11.6041C40.4671 11.6334 40.541 11.6556 40.6148 11.6709C40.691 11.6861 40.7683 11.6931 40.8445 11.6931C40.9207 11.6931 40.998 11.686 41.073 11.6709C41.148 11.6558 41.2218 11.6334 41.2921 11.6041C41.3625 11.5748 41.4316 11.5384 41.4949 11.4963C41.5593 11.4542 41.6191 11.4049 41.673 11.3509C41.891 11.1319 42.0164 10.8308 42.0164 10.5226C42.0164 10.4452 42.0082 10.3689 41.9929 10.2929Z" fill="#FE8A08"/>
<path d="M36.4015 9.3501H12.0461C11.3989 9.3501 10.8743 9.87486 10.8743 10.522C10.8743 11.1691 11.3989 11.6938 12.0461 11.6938H36.4015C37.0487 11.6938 37.5733 11.1691 37.5733 10.522C37.5733 9.87486 37.0487 9.3501 36.4015 9.3501Z" fill="#FE8A08"/>
<path d="M36.8929 17.269H1.31027C0.663044 17.269 0.138397 17.7938 0.138397 18.4409V41.5501C0.138397 42.1973 0.663044 42.7219 1.31027 42.7219H36.8929C37.5402 42.7219 38.0648 42.1972 38.0648 41.5501V18.4409C38.0648 17.7938 37.5402 17.269 36.8929 17.269ZM14.2741 40.3781H4.32713L11.0261 32.6219L15.8777 38.2399L14.2741 40.3781ZM17.2038 40.3781L19.3888 37.4647H25.0711C25.7183 37.4647 26.243 36.9399 26.243 36.2928C26.243 35.6457 25.7183 35.121 25.0711 35.121H21.1468L21.9689 34.0248H29.327L34.0924 40.3781H17.2038ZM23.7266 31.681L25.6479 29.1195L27.5692 31.681H23.7266ZM35.7211 38.6435L26.5854 26.4631C26.364 26.168 26.0167 25.9943 25.6479 25.9943C25.2791 25.9943 24.9318 26.168 24.7104 26.4631L17.3171 36.3207L11.9131 30.0629C11.6906 29.8052 11.3668 29.657 11.0262 29.657C10.6857 29.657 10.362 29.8052 10.1394 30.0629L2.48214 38.9285V19.6128H35.7211V38.6435Z" fill="#FE8A08"/>
<path d="M16.1306 20.9585C13.8461 20.9585 11.9876 22.817 11.9876 25.1014C11.9876 27.3859 13.8462 29.2443 16.1306 29.2443C18.415 29.2443 20.2735 27.3859 20.2735 25.1014C20.2735 22.817 18.415 20.9585 16.1306 20.9585ZM16.1306 26.9007C15.1385 26.9007 14.3314 26.0936 14.3314 25.1015C14.3314 24.1094 15.1386 23.3024 16.1306 23.3024C17.1225 23.3024 17.9297 24.1094 17.9297 25.1015C17.9297 26.0936 17.1227 26.9007 16.1306 26.9007Z" fill="#FE8A08"/>
<path d="M58.8281 17.269H40.8177C40.1704 17.269 39.6458 17.7938 39.6458 18.4409V41.5501C39.6458 42.1972 40.1704 42.7219 40.8177 42.7219H58.8281C59.4754 42.7219 60 42.1972 60 41.5501V18.4409C60 17.7938 59.4754 17.269 58.8281 17.269ZM57.6563 40.3782H41.9895V19.6128H57.6563V40.3782Z" fill="#FE8A08"/>
<path d="M54.9278 21.5432H44.718C44.0708 21.5432 43.5461 22.068 43.5461 22.7151C43.5461 23.3622 44.0708 23.887 44.718 23.887H54.9278C55.575 23.887 56.0997 23.3622 56.0997 22.7151C56.0997 22.068 55.575 21.5432 54.9278 21.5432Z" fill="#FE8A08"/>
<path d="M54.9278 26.2463H44.718C44.0708 26.2463 43.5461 26.7711 43.5461 27.4182C43.5461 28.0653 44.0708 28.5901 44.718 28.5901H54.9278C55.575 28.5901 56.0997 28.0653 56.0997 27.4182C56.0997 26.7711 55.575 26.2463 54.9278 26.2463Z" fill="#FE8A08"/>
<path d="M54.9278 30.9495H44.718C44.0708 30.9495 43.5461 31.4742 43.5461 32.1213C43.5461 32.7684 44.0708 33.2932 44.718 33.2932H54.9278C55.575 33.2932 56.0997 32.7684 56.0997 32.1213C56.0997 31.4742 55.575 30.9495 54.9278 30.9495Z" fill="#FE8A08"/>
<path d="M45.8671 36.5953C45.8519 36.5202 45.8296 36.4464 45.8003 36.3762C45.771 36.3058 45.7347 36.2378 45.6925 36.1735C45.6492 36.1102 45.6011 36.0492 45.546 35.9953C45.2742 35.7235 44.8699 35.598 44.489 35.6754C44.414 35.6906 44.3402 35.7129 44.2699 35.7422C44.1996 35.7715 44.1316 35.8078 44.0671 35.85C44.0038 35.8922 43.9429 35.9414 43.889 35.9953C43.8351 36.0492 43.7859 36.1101 43.7437 36.1735C43.7015 36.2379 43.6652 36.3059 43.6359 36.3762C43.6066 36.4465 43.5843 36.5202 43.5691 36.5953C43.5539 36.6714 43.5457 36.7477 43.5457 36.8237C43.5457 36.9011 43.5539 36.9774 43.5691 37.0534C43.5843 37.1285 43.6066 37.2024 43.6359 37.2727C43.6652 37.3431 43.7015 37.4111 43.7437 37.4754C43.7859 37.5387 43.8351 37.5996 43.889 37.6535C43.9429 37.7074 44.0038 37.7567 44.0671 37.7988C44.1316 37.841 44.1996 37.8774 44.2699 37.9067C44.3402 37.936 44.414 37.9582 44.489 37.9735C44.5652 37.9887 44.6414 37.9969 44.7187 37.9969C45.0269 37.9969 45.3281 37.8715 45.546 37.6534C45.5999 37.5995 45.6492 37.5387 45.6925 37.4753C45.7347 37.4108 45.771 37.3429 45.8003 37.2726C45.8296 37.2022 45.8519 37.1285 45.8671 37.0534C45.8824 36.9774 45.8894 36.9011 45.8894 36.8237C45.8894 36.7477 45.8824 36.6714 45.8671 36.5953Z" fill="#FE8A08"/>
<path d="M54.9278 35.6523H49.1605C48.5133 35.6523 47.9887 36.1771 47.9887 36.8242C47.9887 37.4713 48.5133 37.9961 49.1605 37.9961H54.9278C55.575 37.9961 56.0997 37.4713 56.0997 36.8242C56.0997 36.1771 55.575 35.6523 54.9278 35.6523Z" fill="#FE8A08"/>
<path d="M19.3207 44.3848H1.31027C0.663044 44.3848 0.138397 44.9095 0.138397 45.5566V57.6271C0.138397 58.2742 0.663044 58.799 1.31027 58.799H19.3207C19.968 58.799 20.4926 58.2742 20.4926 57.6271V45.5566C20.4926 44.9095 19.968 44.3848 19.3207 44.3848ZM18.1489 56.4553H2.48214V46.7285H18.1489V56.4553Z" fill="#FE8A08"/>
<path d="M58.8281 44.3848H23.4055C22.7583 44.3848 22.2337 44.9095 22.2337 45.5566V57.6271C22.2337 58.2742 22.7583 58.799 23.4055 58.799H58.8281C59.4754 58.799 60 58.2742 60 57.6271V45.5566C60 44.9095 59.4754 44.3848 58.8281 44.3848ZM57.6563 56.4553H24.5774V46.7285H57.6563V56.4553Z" fill="#FE8A08"/>
<path d="M29.9156 51.3635C29.9004 51.2886 29.8781 51.2146 29.8488 51.1443C29.8195 51.0729 29.7832 51.005 29.741 50.9417C29.6988 50.8771 29.6496 50.8174 29.5957 50.7635C29.5418 50.7096 29.482 50.6604 29.4176 50.6182C29.3543 50.5761 29.2863 50.5397 29.2148 50.5104C29.1445 50.4811 29.0707 50.4576 28.9957 50.4424C28.8445 50.4131 28.6887 50.4131 28.5375 50.4424C28.4637 50.4576 28.3898 50.4811 28.3184 50.5104C28.2481 50.5397 28.1801 50.5761 28.1168 50.6182C28.0524 50.6604 27.9926 50.7096 27.9387 50.7635C27.8848 50.8174 27.8356 50.8771 27.7922 50.9417C27.75 51.005 27.7137 51.0729 27.6844 51.1443C27.6551 51.2148 27.6328 51.2885 27.6176 51.3635C27.6024 51.4385 27.5953 51.5158 27.5953 51.592C27.5953 51.668 27.6024 51.7455 27.6176 51.8205C27.6328 51.8954 27.6551 51.9692 27.6844 52.0407C27.7137 52.111 27.75 52.179 27.7922 52.2423C27.8356 52.3067 27.8848 52.3665 27.9387 52.4204C28.1566 52.6384 28.459 52.7639 28.7672 52.7639C28.8434 52.7639 28.9207 52.7567 28.9957 52.7416C29.0707 52.7264 29.1445 52.7029 29.2148 52.6736C29.2863 52.6443 29.3543 52.6092 29.4176 52.5658C29.482 52.5237 29.5418 52.4745 29.5957 52.4205C29.6496 52.3666 29.6988 52.3068 29.741 52.2424C29.7832 52.1791 29.8195 52.1111 29.8488 52.0408C29.8781 51.9693 29.9004 51.8955 29.9156 51.8205C29.9309 51.7454 29.9391 51.668 29.9391 51.592C29.9391 51.5158 29.9309 51.4384 29.9156 51.3635Z" fill="#FE8A08"/>
<path d="M52.8887 50.4199H33.2095C32.5623 50.4199 32.0377 50.9447 32.0377 51.5918C32.0377 52.2389 32.5623 52.7637 33.2095 52.7637H52.8887C53.536 52.7637 54.0606 52.2389 54.0606 51.5918C54.0606 50.9447 53.536 50.4199 52.8887 50.4199Z" fill="#FE8A08"/>
</svg>
